<svg xmlns="http://www.w3.org/2000/svg" width="124" height="52" viewBox="0 0 124 52" fill="none">
  <g opacity="0.75">
    <path fill-rule="evenodd" clip-rule="evenodd" d="M99.0607 0L117.311 49.6283H123.642V50.0008H103.623V49.6283H109.489L103.53 33.3338H91.2394L91.3325 33.5201C91.798 34.9167 92.0774 36.4996 92.0774 37.9894V44.1347C92.0774 47.3005 93.474 50.4663 96.0811 50.4663C97.664 50.4663 98.8745 49.9076 100.364 48.6041L100.55 48.7903C98.9676 50.4663 97.0123 51.2112 94.0327 51.2112C91.798 51.2112 89.9358 50.6525 88.446 49.6283L88.1667 49.4421C86.2113 47.9523 84.9078 45.4383 84.3491 42.0863L84.256 41.5276L84.1629 40.6896V40.5034L80.8109 49.6283H85.5596V50.0008H75.5967V49.6283H80.4385L84.1629 39.5723C84.1629 39.0136 84.0698 38.3618 84.0698 37.8032V33.5201C84.0698 28.1196 80.066 25.0469 73.0827 25.0469H66.1924V49.7214H72.1516V50.0939H48.9668V49.7214H54.8329L48.8737 33.4269H32.2068L26.2477 49.5352H26.527C34.3484 48.2316 37.8866 42.2725 37.9797 36.0341H38.3522V50.187H0.64209L28.6686 2.04845H17.4021C8.09099 2.04845 3.80787 9.21802 3.71476 16.3876H3.43543V1.676H37.421L37.2348 2.04845L9.39455 49.7214H24.013C24.3855 49.7214 24.7579 49.7214 25.1304 49.7214C25.4097 49.7214 25.5959 49.7214 25.8752 49.6283H25.9684L44.1251 0H44.4975L58.8366 39.1067V2.04845H52.9706V1.676H73.2689C83.0456 1.676 89.8427 6.70401 89.8427 13.8736C89.8427 19.0878 85.1871 23.464 78.2969 24.6745L76.9933 24.8607L78.2969 24.9538C82.4869 25.4194 85.8389 26.7229 88.1667 28.7714L98.6883 0H99.0607ZM91.0531 32.9614L103.251 33.0545L95.0569 10.8009L88.3529 29.1438L88.7254 29.5163C89.7496 30.4474 90.4945 31.6578 91.0531 32.9614ZM66.1924 24.6745V2.04845H71.4067C78.39 2.04845 82.1145 6.14534 82.1145 13.9667C82.1145 22.2536 79.9729 24.7676 73.0827 24.7676C73.0827 24.6745 66.1924 24.6745 66.1924 24.6745ZM40.5868 10.7078L32.393 32.9614H48.7806L40.5868 10.7078Z" fill="#8CCCE0"/>
  </g>
</svg>