<svg xmlns="http://www.w3.org/2000/svg" width="151" height="27" viewBox="0 0 151 27" fill="none">
  <path opacity="0.5" d="M0.968994 13.8556C0.970276 17.8786 2.3992 21.1329 5.21474 23.5281C7.75975 25.6916 10.924 26.7894 14.6191 26.7894C16.616 26.7894 18.7219 26.4173 20.8778 25.6845C23.7677 24.7003 24.3594 24.1113 24.3594 23.5319V16.2649C24.3594 15.23 24.5607 14.5293 24.9492 14.2323C25.0761 14.1302 25.4492 13.9493 26.521 13.8781L26.9365 13.8511V12.3042H16.6429V13.8524L17.0596 13.8787C18.6995 13.9807 19.2514 14.2637 19.4348 14.4235C19.5694 14.5422 19.8854 15.0048 19.8854 16.7525V22.6356C19.8854 22.9172 19.822 23.1213 19.697 23.2432C19.6213 23.3157 19.3277 23.5249 18.227 23.8867C17.7122 24.058 17.1635 24.1851 16.5942 24.264C16.0185 24.3455 15.5121 24.3859 15.0877 24.3859C12.5978 24.3859 10.4759 23.4677 8.78289 21.6597C7.08151 19.8426 6.218 17.2626 6.218 13.9936C6.218 10.013 7.08151 7.13081 8.78225 5.42795C10.4823 3.72573 12.476 2.86275 14.7095 2.86275C16.9327 2.86275 18.6834 3.57238 20.0572 5.0263C20.8239 5.86297 21.5842 7.16674 22.317 8.90168L22.4324 9.17373H24.0344L23.7132 0.511855H22.1747L22.0618 0.789035C21.9304 1.11049 21.7772 1.3543 21.6054 1.51278C21.5285 1.58336 21.3188 1.70142 20.7816 1.70142C20.7162 1.70014 20.3585 1.65009 18.5245 1.1246C17.109 0.717174 15.6499 0.511855 14.1858 0.511855C10.1195 0.511855 6.80714 1.92727 4.34162 4.71832C2.10495 7.24053 0.970276 10.3107 0.968994 13.8409V13.8556ZM57.9721 22.6093C58.7857 21.1194 59.1972 19.0393 59.1972 16.4272V6.81642C59.1972 4.43023 59.546 3.64745 59.7537 3.39465C60.0011 3.09245 60.6377 2.69529 62.2596 2.51692L62.6564 2.47457V0.944307H53.2276V2.47842L53.629 2.51756C54.8399 2.63754 55.69 2.92242 56.0868 3.34461C56.3118 3.58329 56.6868 4.35131 56.6868 6.81706V16.4279C56.6868 18.7024 56.4118 20.3931 55.8707 21.4537C54.9111 23.3292 53.0552 24.2409 50.1954 24.2409C47.6036 24.2409 45.901 23.3535 44.9919 21.5326C44.4958 20.5182 44.2445 19.0617 44.2445 17.203V5.39202C44.2445 3.79118 44.5464 3.2798 44.7278 3.11812C44.9201 2.94424 45.4997 2.63626 47.2164 2.51884L47.6312 2.48997V0.944307H36.2754V2.48676L36.6857 2.5182C38.3698 2.64845 38.941 2.95964 39.1314 3.13352C39.3089 3.29585 39.6083 3.80529 39.6083 5.39202V16.9322C39.6083 19.2831 40.0212 21.2137 40.8347 22.6657C42.3533 25.4009 45.2246 26.7888 49.3672 26.7888C53.5584 26.7888 56.4535 25.3823 57.9721 22.6093ZM94.637 19.1375H92.7446L92.6253 19.4005C91.7272 21.3927 90.7201 22.6567 89.6354 23.1546C88.5097 23.6718 86.7096 23.9348 84.2826 23.9348C81.4683 23.9348 80.5336 23.836 80.2445 23.7533C80.1529 23.7263 79.8734 23.6461 79.8734 22.8826V14.1854H85.1217C86.9917 14.1854 87.5937 14.5319 87.7879 14.7391C88.0437 15.0125 88.4161 15.6894 88.7379 17.3589L88.8072 17.7195H90.4842V8.30113H88.8046L88.7379 8.66492C88.4309 10.3242 88.0597 11.0017 87.8039 11.2782C87.611 11.4874 87.0058 11.8352 85.1211 11.8352H79.8727V4.04077C79.8727 3.48127 79.9663 3.33498 79.9637 3.33498C79.9637 3.33498 80.0907 3.24131 80.6202 3.24131H85.6429C88.1982 3.24131 89.1803 3.58265 89.5521 3.86753C89.9188 4.14856 90.431 4.87808 90.7925 6.75675L90.8611 7.11734H92.6202L92.4728 0.944307H71.9934V2.48933L72.4063 2.5182C74.0493 2.63434 74.5923 2.95386 74.7699 3.13544C74.9436 3.31189 75.2372 3.84122 75.2372 5.39202V21.8181C75.2372 23.5095 74.925 23.9567 74.7904 24.0702C74.6045 24.2281 74.0442 24.5194 72.3915 24.6945L71.9941 24.7356V26.2665H92.7228L94.637 19.1375ZM119.367 0.761445C119.287 1.09124 119.18 1.3434 119.048 1.50765C118.967 1.60774 118.748 1.66549 118.462 1.66549C118.4 1.66036 118.086 1.60133 116.569 1.06942C115.346 0.640821 114.277 0.42267 113.391 0.422028H113.377C111.227 0.423312 109.469 1.09188 108.154 2.40977C106.836 3.72894 106.168 5.39972 106.168 7.37591C106.168 8.88885 106.733 10.2869 107.853 11.5362C108.441 12.1759 109.234 12.813 110.212 13.4334L113.358 15.3981C115.133 16.5062 116.304 17.3396 116.835 17.8735C117.623 18.6851 118.004 19.6103 118.004 20.7017C118.004 21.9118 117.634 22.8223 116.871 23.4838C116.089 24.1639 115.186 24.4937 114.112 24.4937C112.06 24.4937 110.388 23.7013 109.001 22.0722C108.199 21.129 107.486 19.8387 106.884 18.2373L106.775 17.9485H105.109L106.332 26.7009H107.91L107.968 26.3255C108.008 26.0759 108.088 25.8475 108.214 25.6274C108.279 25.5132 108.441 25.4555 108.691 25.4542C108.754 25.4606 109.083 25.5209 110.69 26.0798C111.974 26.5283 113.226 26.7548 114.414 26.7548C116.784 26.7548 118.766 26.0612 120.301 24.6939C121.853 23.3138 122.64 21.5698 122.64 19.5109C122.64 17.9755 122.195 16.6217 121.313 15.4828C120.453 14.4017 118.97 13.2102 116.907 11.9385L113.666 9.93533C112.502 9.21928 111.636 8.5289 111.09 7.87894C110.581 7.28352 110.335 6.58222 110.335 5.734C110.335 4.81135 110.647 4.11391 111.292 3.60382C111.967 3.06807 112.741 2.80821 113.655 2.80821C114.853 2.80821 116.092 3.2535 117.334 4.13188C118.566 5.00256 119.481 6.58543 120.052 8.83688L120.136 9.17245H121.858L120.957 0.421387H119.449L119.367 0.761445ZM144.91 11.9385L141.67 9.93469C140.504 9.21928 139.638 8.52762 139.093 7.87894C138.584 7.28352 138.336 6.58222 138.336 5.734C138.336 4.81071 138.65 4.11391 139.295 3.60382C139.968 3.06807 140.742 2.80757 141.658 2.80757C142.855 2.80757 144.094 3.2535 145.338 4.13188C146.569 5.00256 147.484 6.58543 148.055 8.83688L148.139 9.17245H149.861L148.959 0.421387H147.453L147.369 0.760804C147.289 1.09124 147.181 1.34211 147.05 1.50701C146.968 1.60774 146.75 1.66549 146.464 1.66549C146.403 1.66036 146.089 1.60133 144.571 1.06878C143.345 0.638896 142.275 0.421387 141.388 0.421387C139.234 0.421387 137.474 1.08996 136.155 2.40913C134.837 3.7283 134.169 5.39972 134.169 7.37527C134.169 8.88821 134.735 10.2863 135.855 11.5355C136.443 12.1746 137.236 12.8117 138.214 13.4328L141.359 15.3974C143.135 16.5049 144.306 17.339 144.837 17.8722C145.624 18.6845 146.007 19.609 146.007 20.6998C146.007 21.9105 145.636 22.821 144.872 23.4819C144.092 24.1626 143.19 24.4924 142.114 24.4924C140.062 24.4924 138.389 23.7 137.002 22.0703C136.2 21.1278 135.487 19.8381 134.885 18.2353L134.777 17.9466H133.111L134.334 26.6989H135.911L135.971 26.3236C136.011 26.074 136.091 25.8456 136.215 25.6255C136.28 25.5107 136.444 25.4536 136.693 25.4523C136.755 25.4587 137.085 25.519 138.691 26.0779C139.976 26.5263 141.228 26.7528 142.414 26.7528C144.786 26.7528 146.768 26.0592 148.303 24.692C149.855 23.3118 150.642 21.5673 150.642 19.5089C150.642 17.9736 150.196 16.6197 149.315 15.4815C148.456 14.4023 146.973 13.2095 144.91 11.9385Z" fill="#8CCCE0"/>
</svg>