<svg xmlns="http://www.w3.org/2000/svg" width="123" height="35" viewBox="0 0 123 35" fill="none">
  <g opacity="0.75" clip-path="url(#clip0_2001_127)">
    <path d="M76.858 14.9745C90.8541 9.40904 99.5636 6.20467 122.642 0.605469C110.103 1.41499 82.3819 3.33761 63.2686 7.04793L76.858 14.9745Z" fill="#8CCCE0"/>
    <path d="M33.3447 33.4587H51.6447C55.2708 27.9944 58.8631 25.3297 63.0653 22.3615C59.8797 21.1472 56.6942 19.9666 53.4408 18.8198C41.7492 23.9468 35.2764 30.8278 33.3447 33.4587Z" fill="#8CCCE0"/>
    <path d="M36.9369 13.5918C20.6363 19.3934 11.5541 25.6672 5.4541 33.4589H25.6519C27.6174 30.7267 35.1069 22.8676 49.2047 17.4033C45.3074 16.0878 38.5635 13.9966 36.9369 13.5918Z" fill="#8CCCE0"/>
    <path d="M45.3413 1.34766H0.641846C45.6802 9.44289 67.403 19.8655 102.309 34.6056C99.3263 32.3794 51.2041 4.18099 45.3413 1.34766Z" fill="#8CCCE0"/>
  </g>
  <defs>
    <clipPath id="clip0_2001_127">
      <rect width="122" height="34" fill="white" transform="translate(0.641846 0.605469)"/>
    </clipPath>
  </defs>
</svg>