<svg xmlns="http://www.w3.org/2000/svg" width="121" height="50" viewBox="0 0 121 50" fill="none">
  <g opacity="0.5">
    <path d="M106.515 3.01491C106.816 2.99374 107.083 2.93193 107.318 2.82906C107.552 2.72746 107.74 2.57082 107.878 2.35619C108.018 2.14367 108.088 1.84564 108.088 1.46548C108.088 1.14416 108.024 0.88719 107.901 0.695416C107.776 0.505336 107.615 0.358859 107.417 0.25514C107.219 0.153962 106.992 0.0828402 106.735 0.0481262C106.624 0.0311925 106.515 0.0206089 106.406 0.0117188H103.998V3.04708H105.559C105.897 3.04708 106.215 3.03692 106.515 3.01491ZM100.865 8.58948C101.473 9.21983 102.192 9.71387 103.02 10.0737C103.848 10.4331 104.746 10.6118 105.712 10.6118C106.667 10.6118 107.552 10.4327 108.373 10.0737C109.195 9.71387 109.909 9.21983 110.518 8.58948C111.126 7.95997 111.603 7.21531 111.948 6.35804C112.291 5.4995 112.465 4.56519 112.465 3.55298C112.465 2.57209 112.291 1.65556 111.948 0.805062C111.835 0.526926 111.703 0.265724 111.562 0.0117188H109.222C109.461 0.417281 109.583 0.921904 109.583 1.53067C109.583 2.39556 109.342 3.03057 108.857 3.4319C108.373 3.83535 107.774 4.07411 107.054 4.14777L109.803 8.39135H108.197L105.582 4.25742H103.998V8.39135H102.504V0.0117188H99.8213C99.6807 0.265724 99.5482 0.526926 99.436 0.805485C99.0923 1.65556 98.9191 2.57209 98.9191 3.5534C98.9191 4.56603 99.0918 5.50035 99.436 6.35846C99.7798 7.21531 100.257 7.95997 100.865 8.58948ZM42.9234 16.4577C40.8394 16.4577 39.7353 18.0855 39.712 19.7517H46.4113C46.4113 17.7874 45.1684 16.4577 42.9234 16.4577ZM113.146 0.0117188C113.196 0.115438 113.252 0.2145 113.299 0.321182C113.738 1.31858 113.959 2.39598 113.959 3.55298C113.959 4.74299 113.738 5.83733 113.299 6.84277C112.86 7.84397 112.267 8.7169 111.518 9.45691C110.77 10.1973 109.897 10.7739 108.902 11.1837C107.905 11.5939 106.842 11.7997 105.712 11.7997C104.583 11.7997 103.517 11.5944 102.514 11.1837C101.51 10.7743 100.63 10.1973 99.8746 9.45691C99.1198 8.71648 98.5229 7.84355 98.0839 6.84277C97.644 5.83733 97.4231 4.74299 97.4231 3.55298C97.4231 2.39598 97.6436 1.31858 98.0839 0.321182C98.1309 0.2145 98.1872 0.115438 98.2375 0.0117188H0.64209L12.1809 49.199C36.4071 33.6187 59.6904 48.5915 60.6269 49.1626H60.6294C60.6315 49.1609 60.634 49.1596 60.6366 49.1584H60.6484C60.6501 49.1596 60.6535 49.1609 60.6552 49.1626H60.659C61.5937 48.5915 84.8784 33.6187 109.104 49.199L120.642 0.0117188H113.146ZM32.3502 29.8738H16.5781V13.4456H23.6689V25.4038H32.3502V29.8738ZM53.5639 23.058H39.7243C39.7243 25.1963 41.5345 26.8093 43.9471 26.8093C45.3817 26.8093 46.6886 26.3347 47.6119 25.0507H53.1309C51.327 29.1957 47.8282 30.3742 43.0581 30.3742C36.8545 30.3742 32.4684 27.015 32.4684 21.694C32.4684 16.0111 36.7889 13.013 43.0581 13.013C50.0719 13.013 53.5885 17.558 53.5885 21.9328C53.5881 22.2977 53.6164 22.6622 53.5639 23.058ZM66.402 29.9001H60.4262L51.504 13.4321H59.5558L64.6756 23.4424L64.8166 23.7443L64.9449 23.4424L69.7332 13.4317H74.5681L66.402 29.9001ZM82.1602 29.8679H75.3208V13.4012H82.1602V29.8679ZM87.2982 15.465L85.2378 17.7062H84.381L85.3254 15.2626H83.4378V12.0042H87.2982V15.465ZM96.2741 30.337C88.9657 30.337 87.6356 26.1146 87.6356 25.0685H92.9277C92.9277 25.6832 93.7604 26.4202 94.4631 26.72C95.0414 26.9676 95.6857 27.0163 96.2885 27.0163C97.7787 27.0163 99.0012 26.6548 99.0012 25.7894C99.0012 24.7357 97.7495 24.5021 96.3685 24.3039C92.6106 23.7621 87.3439 23.1309 87.3439 18.9271C87.3439 15.0061 91.6251 13.0104 96.17 13.0104C103.446 13.0104 105.375 17.0411 105.375 18.2082H99.9961C99.9961 17.8598 99.7307 17.1909 98.9974 16.8082C98.4535 16.5242 97.6538 16.2943 96.8808 16.2943C94.8712 16.2943 93.7405 16.7126 93.7405 17.6333C93.7405 18.3856 94.7599 18.7586 96.2233 19.0096C100.043 19.6654 105.909 19.8923 105.909 24.541C105.908 26.9024 103.864 30.337 96.2741 30.337Z" fill="#8CCCE0"/>
  </g>
</svg>