<svg xmlns="http://www.w3.org/2000/svg" width="120" height="35" viewBox="0 0 120 35" fill="none">
  <g clip-path="url(#clip0_2001_133)">
    <path d="M75.2973 19.4337C75.1528 20.1953 75.0002 20.9541 74.8637 21.7183C74.2025 25.3673 73.5493 29.0162 72.8881 32.6651C72.8426 32.9153 72.7704 33.1602 72.7008 33.4051C72.5937 33.7845 72.3421 33.989 71.9486 33.989C69.6652 33.989 67.3845 33.9998 65.1011 33.9729C64.4721 33.9648 64.2847 33.6446 64.4025 32.8992C64.6139 31.5699 64.8468 30.2459 65.0824 28.922C65.3421 27.4554 65.6124 25.9889 65.8747 24.5223C65.8855 24.455 65.8694 24.3824 65.8587 24.1617C65.7115 24.3716 65.6258 24.4631 65.5723 24.5734C62.9489 29.9284 58.7329 33.2275 52.8786 34.2258C48.1084 35.0385 43.4373 34.6644 39.1516 32.143C35.1524 29.7912 32.9252 26.2176 32.2855 21.6242C32.2587 21.4304 32.2078 21.2394 32.1677 21.0483C32.1222 21.0429 32.0767 21.0402 32.0312 21.0348C31.916 21.6403 31.7983 22.2431 31.6885 22.8485C31.0728 26.2284 30.4652 29.6082 29.8415 32.9853C29.6835 33.8464 29.5095 34.0025 28.653 34.0079C26.5329 34.0186 24.4128 34.024 22.2927 33.989C21.2809 33.9729 21.0507 33.6419 21.2327 32.6301C21.9313 28.7686 22.6354 24.9071 23.3421 21.0456C23.4598 20.3971 23.4197 20.3352 22.7291 20.3352C19.1956 20.3352 15.6621 20.3406 12.1287 20.3244C11.6575 20.3244 11.4621 20.4751 11.3791 20.946C10.7313 24.6326 10.0434 28.3138 9.40095 32.0004C9.05028 34.0159 9.07704 34.0213 7.05334 34.0213C5.43919 34.0213 3.82771 34.0213 2.21356 34.0213C1.9432 34.0213 1.67016 34.0105 1.3998 33.9836C0.794827 33.9271 0.591385 33.7549 0.65563 33.1602C0.776089 32.0435 0.942054 30.9267 1.14014 29.8208C2.16806 24.0595 3.21471 18.3009 4.25334 12.5422C4.87169 9.12745 5.48469 5.70995 6.11108 2.29515C6.26901 1.43405 6.47781 1.19725 7.31567 1.1838C9.41701 1.15151 11.521 1.13536 13.6197 1.19187C14.7145 1.22147 14.9019 1.53093 14.7092 2.62614C14.3799 4.48827 14.0292 6.34502 13.6893 8.20445C13.4216 9.67101 13.1539 11.1376 12.8916 12.6041C12.8621 12.7629 12.8702 12.927 12.8595 13.1531C13.095 13.1639 13.3038 13.1827 13.5153 13.1827C17.03 13.1827 20.5474 13.1692 24.0621 13.1988C24.6162 13.2042 24.809 13.0212 24.8973 12.4938C25.4648 9.17857 26.0591 5.87141 26.6453 2.55887C26.8648 1.32373 27.0308 1.17034 28.2782 1.16227C30.1092 1.15151 31.9401 1.1219 33.7684 1.16765C35.5378 1.2134 35.5378 1.4502 35.2809 2.90061C35.0132 4.40216 34.7535 5.90639 34.4858 7.41063C34.4698 7.49405 34.4189 7.57208 34.344 7.7443C33.9371 7.36488 33.5489 7.04466 33.209 6.67869C32.7405 6.1728 32.3176 5.62384 31.8625 5.10449C31.3164 4.48558 30.5268 4.4183 29.8629 4.91882C29.1964 5.42202 29.0438 6.17818 29.464 6.88859C30.6044 8.81799 32.2373 10.228 34.1004 11.4094C36.2445 12.771 38.3673 14.1676 40.5195 15.513C40.9906 15.809 41.1138 16.097 41.0067 16.6513C40.648 18.5188 40.8032 20.3594 41.6036 22.0978C42.7627 24.6165 44.8052 25.9835 47.4793 26.4275C50.4614 26.9226 53.2132 26.3548 55.6224 24.4604C57.0465 23.341 58.0101 21.8798 58.5455 20.1495C58.666 19.7566 58.8721 19.5817 59.2468 19.5279C61.7149 19.1593 64.183 18.7798 66.651 18.4219C68.8059 18.1098 70.8617 17.5393 72.69 16.2853C73.5306 15.7095 73.7715 14.9937 73.3245 14.1999C72.8801 13.4087 72.0878 13.1585 71.2285 13.6455C68.5918 15.1417 65.7141 15.4323 62.7723 15.4054C61.7042 15.3946 60.6361 15.3085 59.5681 15.3166C59.0835 15.3193 58.9256 15.1444 58.8266 14.6923C58.3287 12.3916 57.0732 10.6398 54.9692 9.56069C53.3069 8.70766 51.5268 8.47893 49.6878 8.67537C47.1795 8.94446 45.03 9.95894 43.29 11.8184C43.1937 11.9206 42.9528 12.0067 42.843 11.9583C40.739 11.0299 38.643 10.0881 36.5524 9.13014C36.1776 8.95792 35.8377 8.70766 35.4147 8.45202C35.6449 8.13987 35.8323 7.85732 36.0438 7.5963C38.9241 4.04695 42.6583 1.89959 47.0992 1.07078C51.0342 0.336151 54.9665 0.384588 58.7463 1.91573C63.7788 3.95546 66.6618 7.73085 67.4755 13.1154C67.5076 13.3307 67.5451 13.546 67.5826 13.7612C67.5879 13.7935 67.6147 13.8231 67.6897 13.9604C67.7619 13.7343 67.8289 13.5863 67.8556 13.4303C68.5141 9.74636 69.1673 6.05978 69.8312 2.37319C70.0105 1.37216 70.238 1.17034 71.2392 1.16227C73.1424 1.14612 75.0457 1.13805 76.9463 1.16227C78.3436 1.18111 78.5283 1.47173 78.2713 2.87371C77.5271 6.9128 76.8044 10.9573 76.0736 14.9991C76.0549 15.1013 76.0736 15.209 76.0736 15.47C76.2931 15.2359 76.4269 15.1067 76.5447 14.9641C79.9818 10.7312 83.4323 6.50916 86.84 2.2521C87.4637 1.47442 88.1222 1.0923 89.1421 1.13267C90.9704 1.20532 92.8013 1.14881 94.6323 1.15689C95.0124 1.15689 95.3925 1.18649 95.7673 1.24031C96.4686 1.34256 96.7122 1.73006 96.4365 2.4001C96.2732 2.79567 96.0136 3.16433 95.7432 3.50069C92.0839 8.04569 88.4113 12.5799 84.752 17.1222C83.9891 18.0667 84.0533 17.7465 84.6637 18.7179C86.2029 21.1667 87.7528 23.6047 89.3027 26.0454C89.4044 26.2068 89.5222 26.3602 89.6828 26.5836C89.83 26.3656 89.9371 26.2284 90.0227 26.0777C94.5868 18.0479 99.1562 10.0208 103.704 1.98031C104.023 1.41791 104.435 1.15958 105.048 1.15958C107.677 1.15958 110.303 1.14881 112.931 1.15689C113.606 1.15689 113.973 1.5094 114.101 2.21443C114.615 5.07489 115.124 7.93805 115.64 10.8012C116.639 16.3284 117.643 21.8529 118.644 27.3774C118.973 29.2018 119.308 31.0236 119.632 32.8508C119.747 33.5047 119.316 34.0025 118.601 34.0132C117.26 34.0294 115.919 34.0213 114.578 34.0213C113.635 34.0213 112.693 34.0267 111.751 34.0213C110.929 34.0159 110.702 33.7845 110.6 32.9799C110.415 31.5187 110.196 30.0629 110.014 28.6018C109.963 28.2008 109.807 28.0582 109.39 28.0609C105.856 28.077 102.323 28.077 98.7895 28.0609C98.4067 28.0609 98.2032 28.1954 98.0319 28.5264C97.2075 30.1248 96.3482 31.7098 95.5264 33.3109C95.2694 33.8114 94.916 34.024 94.3646 34.0213C91.139 34.0105 87.9134 34.0132 84.6878 34.0213C84.2006 34.0213 83.866 33.8303 83.6197 33.4132C80.9294 28.8386 77.934 24.447 75.5918 19.6652C75.5543 19.5871 75.4954 19.5172 75.4472 19.4445C75.399 19.4391 75.3509 19.4364 75.3053 19.431L75.2973 19.4337ZM101.854 21.5165C102.09 21.5542 102.178 21.5811 102.267 21.5811C104.242 21.5838 106.218 21.5757 108.193 21.5919C108.683 21.5946 108.654 21.3228 108.608 20.9864C108.212 18.0856 107.821 15.1874 107.422 12.2866C107.369 11.891 107.289 11.4982 107.222 11.1026C107.165 11.0972 107.112 11.0918 107.056 11.0864C105.334 14.5362 103.616 17.9887 101.854 21.5192V21.5165Z" fill="#8CCCE0"/>
    <path d="M49.1603 22.2297C48.8471 22.0494 48.4536 21.8987 48.1619 21.6323C47.8299 21.331 47.5622 20.9488 47.3133 20.5694C45.3565 17.5879 42.6984 15.3786 39.7137 13.5111C37.623 12.2033 35.5592 10.8551 33.5007 9.49352C32.3175 8.71315 31.3967 7.6583 30.6552 6.45545C30.5695 6.31552 30.6257 6.08948 30.6177 5.90381C30.781 5.97108 31.0058 5.99261 31.0969 6.1137C33.2838 9.04951 36.3756 10.6668 39.6601 11.9477C41.8739 12.8114 43.9271 13.9013 45.8303 15.3329C46.8395 16.0917 47.9825 16.6756 49.0907 17.2892C49.8108 17.6874 50.6192 17.7332 51.4223 17.6121C53.2613 17.3322 55.0896 16.9663 56.9366 16.7537C58.2403 16.603 59.5707 16.5653 60.885 16.6191C63.6288 16.7321 66.3565 16.6864 69.012 15.906C69.9248 15.6369 70.7733 15.1579 71.6621 14.8C71.8253 14.7328 72.0395 14.7893 72.2295 14.7893C72.1332 14.9588 72.077 15.1875 71.9324 15.2898C70.1764 16.5357 68.1447 16.942 66.0728 17.2515C63.3209 17.6632 60.5638 18.0642 57.828 18.5727C55.4965 19.006 53.3362 19.9478 51.3125 21.1937C50.8816 21.4601 50.4292 21.6942 49.9768 21.9203C49.7546 22.0333 49.5083 22.1006 49.1657 22.227L49.1603 22.2297Z" fill="#8CCCE0"/>
  </g>
  <defs>
    <clipPath id="clip0_2001_133">
      <rect width="119" height="34" fill="white" transform="translate(0.64209 0.605469)"/>
    </clipPath>
  </defs>
</svg>