<svg xmlns="http://www.w3.org/2000/svg" width="77" height="20" viewBox="0 0 77 20" fill="none">
  <g opacity="0.25">
    <path fill-rule="evenodd" clip-rule="evenodd" d="M36.3152 12.8653C35.5095 13.6783 34.4107 14.2695 33.3852 14.2695C33.2387 14.2695 32.5062 14.1956 32.5062 13.6044C32.5062 12.4958 33.8247 11.3133 35.363 10.5743C35.8757 10.3526 36.3152 10.2787 36.828 10.2787C37.5605 10.2787 37.6337 10.7221 37.6337 10.796C37.6337 11.0916 37.4872 11.609 36.3152 12.8653ZM-35.1766 8.57888C-35.0301 8.57888 -35.0301 8.72669 -35.1034 8.8006C-36.4951 9.53964 -41.3296 12.0524 -43.8201 13.087C-43.9666 13.1609 -44.0399 13.087 -44.0399 12.9392C-44.0399 12.8653 -44.0399 12.7175 -44.0399 12.4958C-44.0399 11.8307 -43.5271 10.6482 -42.5016 9.90916C-41.1099 8.9484 -39.0589 8.43108 -37.3009 8.43108C-36.4219 8.35717 -35.5429 8.43107 -35.1766 8.57888ZM-26.1669 2.74045C-26.1669 3.77511 -30.5619 6.14005 -32.9059 7.47032C-32.9791 7.54422 -33.1257 7.61813 -33.2722 7.61813C-34.4441 7.61813 -36.2021 6.73128 -36.2021 5.47491C-36.2021 4.95758 -35.9091 4.21854 -35.2499 3.6273C-34.0046 2.44484 -31.8072 1.7058 -29.0969 1.7058C-28.0714 1.7058 -26.1669 1.92751 -26.1669 2.74045ZM-24.9949 12.6436C-26.0204 13.1609 -27.7052 14.2695 -29.0969 14.2695C-29.8294 14.2695 -30.5619 13.8261 -30.5619 13.0131C-30.5619 12.1263 -29.6097 11.0177 -27.6319 11.0177C-27.1192 11.0177 -25.9472 11.2394 -25.0682 11.6829C-24.8484 11.8307 -24.8484 11.8307 -24.8484 12.1263C-24.7752 12.348 -24.7752 12.5697 -24.9949 12.6436ZM-18.9152 7.76594C-20.1604 9.17012 -21.4057 10.1309 -22.2114 10.796C-22.2847 10.8699 -22.3579 10.9438 -22.4312 10.9438C-22.5044 10.9438 -22.5777 10.8699 -22.5044 10.7221C-22.2847 9.39183 -21.4789 8.20936 -20.4534 7.1008C-19.9407 6.50957 -18.4024 5.2532 -17.7432 5.2532C-17.4502 5.2532 -17.3769 5.401 -17.3769 5.54881C-17.4502 5.84443 -17.9629 6.73128 -18.9152 7.76594ZM-16.0584 13.1609C-16.0584 12.348 -15.1062 11.0177 -12.8354 11.0177C-12.3959 11.0177 -12.0297 11.0916 -11.8832 11.0916C-11.6634 11.1655 -11.5902 11.2394 -11.5902 11.3872C-11.5902 11.609 -11.5902 11.8307 -11.5902 12.0524C-11.5902 12.2741 -11.5169 12.5697 -11.5169 12.8653C-11.5169 13.087 -11.7367 13.3087 -11.8832 13.3827C-12.3227 13.6783 -13.4214 14.4173 -14.5202 14.4173C-15.3992 14.4912 -16.0584 13.9 -16.0584 13.1609ZM-6.6092 8.06155C-7.6347 9.39183 -8.00095 9.98306 -9.17294 11.1655C-9.24619 11.2394 -9.31944 11.3133 -9.39269 11.3133C-9.53919 11.3133 -9.46594 11.1655 -9.46594 11.0177C-9.46594 10.8699 -9.24619 9.39183 -8.14745 7.54422C-7.12194 5.77052 -5.94995 5.03148 -5.5837 5.03148C-5.36395 5.03148 -5.2907 5.2532 -5.2907 5.401C-5.2907 6.14005 -6.24295 7.61813 -6.6092 8.06155ZM1.74129 13.2348C1.59479 13.3088 1.44829 13.3088 1.37504 13.1609C1.22854 12.9392 1.15529 12.5697 1.15529 12.2002C1.15529 10.7221 2.54704 9.24402 3.71903 9.24402C4.08528 9.24402 4.52478 9.46573 4.52478 9.98306C4.45153 11.3133 2.54704 12.7175 1.74129 13.2348ZM19.3945 6.87909C18.8085 8.13546 17.4168 10.3526 15.8785 11.9785C15.5855 12.2741 13.9008 14.0478 13.095 14.0478C12.802 14.0478 12.6555 13.7522 12.6555 13.6044C12.6555 13.1609 13.6078 11.9046 13.9008 11.535C15.146 10.057 17.7098 7.76594 19.1748 6.73128C19.3213 6.58347 19.3945 6.80518 19.3945 6.87909ZM30.675 3.18388C30.675 4.95758 27.5985 6.95299 25.8405 7.47032C25.694 7.54422 25.5475 7.54422 25.401 7.47032C25.2545 7.39642 24.229 6.87909 22.8372 6.87909C21.6653 6.87909 20.9328 7.32251 20.7863 7.32251C20.6398 7.39642 20.6398 7.32251 20.713 7.1747C21.006 6.50957 21.2258 5.62272 21.299 5.401C21.299 5.2532 21.4455 5.10539 21.5188 5.03148C23.4232 3.84902 27.159 2.14922 29.2832 2.14922C30.4552 2.29703 30.675 2.81436 30.675 3.18388ZM25.5475 12.2741C25.5475 12.8653 23.936 16.8561 21.4455 16.7822C19.6143 16.7822 18.8085 15.8954 18.8085 15.0824C18.8085 14.3434 19.541 13.9 19.9805 13.6783C21.1525 13.087 23.2035 12.4219 25.2545 12.0524C25.401 12.0524 25.5475 12.0524 25.5475 12.2741ZM54.5545 13.3827C54.4812 13.4566 54.4079 13.4566 54.3347 13.4566C53.9684 13.4566 53.8952 12.6436 53.8952 12.4219C53.8952 11.8307 54.1882 11.0916 54.701 10.5743C55.2137 9.98306 56.0194 9.53964 56.3857 9.53964C56.7519 9.53964 56.7519 9.90916 56.7519 10.1309C56.6787 11.4611 55.2869 12.8653 54.5545 13.3827ZM32.9457 10.2048C32.5795 10.2048 29.8692 10.2048 28.4775 10.3526C28.331 10.3526 28.1845 10.3526 28.1845 10.2048C28.1112 9.98306 27.8182 9.31793 27.159 8.72669C27.0857 8.65279 27.0857 8.57888 27.2322 8.50498C29.3565 7.83984 33.4585 5.84443 33.4585 2.96217C33.4585 1.48408 32.2132 0.597234 30.1622 0.597234C27.0125 0.597234 22.9105 2.88826 21.6653 3.4795C21.5188 3.5534 21.3723 3.5534 21.3723 3.33169C21.2258 2.74045 20.7863 1.7797 19.541 1.7797C16.4645 1.7797 12.4358 6.43566 11.2638 7.76594C8.99303 10.3526 5.91653 14.4173 3.42604 14.4173C2.98654 14.4173 2.62029 14.2695 2.54704 14.1956C2.47379 14.1217 2.47379 14.0478 2.62029 13.9739C5.98978 11.609 5.77003 9.90916 5.77003 9.61354C5.77003 8.65279 5.03753 7.61813 3.64578 7.61813C1.52154 7.61813 -0.675961 10.1309 -0.675961 12.348C-0.675961 13.087 -0.456211 13.6044 -0.309711 13.9739C-0.236462 14.1217 -0.309708 14.1956 -0.456207 14.2695C-0.602707 14.3434 -1.33521 14.5651 -1.84796 14.5651C-3.01995 14.5651 -3.5327 13.8261 -3.5327 13.1609C-3.5327 12.348 -2.65371 11.3133 -2.14096 10.9438C-1.92121 10.796 -1.70145 10.5743 -1.70145 10.2048C-1.70145 9.76135 -2.28745 9.39183 -2.72695 9.39183C-3.2397 9.39183 -3.6792 9.83525 -3.89895 10.057C-4.4117 10.7221 -4.77795 11.3133 -5.07095 12.0524C-5.1442 12.2002 -5.1442 12.348 -5.36395 12.5697C-5.80345 13.1609 -6.7557 14.1956 -7.92769 14.1956C-8.80669 14.1956 -9.24619 13.4566 -9.39269 13.0131C-9.39269 12.9392 -9.39269 12.7914 -9.31944 12.6436C-6.6092 10.5743 -3.5327 6.43566 -3.45945 4.51415C-3.45945 4.21854 -3.5327 3.4795 -4.4117 3.4795C-5.80345 3.4795 -8.14745 5.10539 -9.61244 7.1008C-10.3449 8.06155 -10.6379 8.72669 -11.1507 9.76135C-11.2239 9.98306 -11.2972 9.98306 -11.4437 9.90916C-11.5902 9.90916 -12.6889 9.68745 -13.6412 9.68745C-17.0839 9.68745 -18.6222 11.7568 -18.6222 13.3087C-18.6222 13.4566 -18.6954 13.5305 -18.8419 13.6044C-18.9884 13.6044 -19.5744 13.9 -20.3802 13.9C-21.7719 13.9 -22.2114 13.087 -22.3579 12.7175C-22.4312 12.5697 -22.4312 12.4219 -22.2847 12.348C-21.0394 11.4611 -19.4279 10.2048 -18.1094 8.8006C-16.6444 7.32251 -15.4724 5.77052 -15.4724 4.88368C-15.3992 4.51415 -15.5457 3.92292 -16.4979 3.92292C-19.2814 3.92292 -23.4567 7.61813 -24.4822 10.4265C-24.5554 10.5743 -24.6287 10.6482 -24.7752 10.5004C-24.9949 10.4265 -26.8262 9.53964 -28.5842 9.53964C-31.4409 9.53964 -33.1257 11.1655 -33.2722 12.8653C-33.2722 13.0131 -33.3454 13.2348 -33.5651 13.3087C-36.1289 14.8607 -38.7659 15.5259 -40.2309 15.5259C-41.6226 15.5259 -42.7946 15.2303 -43.4539 14.3434C-43.5271 14.1956 -43.5271 14.1217 -43.3806 14.1217C-36.7149 10.9438 -31.0747 8.20936 -25.5077 4.44025C-24.5554 3.77511 -23.6764 3.18388 -23.6764 2.14922C-23.6764 0.375521 -27.4854 0.153809 -28.7307 0.153809C-33.3454 0.153809 -39.7181 2.37093 -39.7181 5.03148C-39.7181 6.21395 -38.6194 6.80518 -37.8869 7.1008C-37.8136 7.1008 -37.8136 7.1747 -37.8869 7.1747H-38.6194C-47.1164 7.1747 -48.8011 11.3872 -48.8011 13.0131C-48.8011 13.9 -48.5081 14.4912 -48.2884 14.9346C-48.2151 15.0085 -48.2884 15.0824 -48.3616 15.0824C-48.8744 15.3781 -54.3681 17.8169 -54.5146 17.8908C-54.8809 18.0386 -55.1006 18.3342 -54.9541 18.7038C-54.8076 18.9994 -54.5146 19.1472 -54.1484 18.9994C-53.9286 18.9255 -47.6291 16.0432 -47.4826 16.0432C-47.4094 15.9693 -47.3361 15.9693 -47.1896 16.0432C-45.8711 17.004 -44.5526 17.5952 -42.4284 17.5952C-39.2786 17.5952 -35.9091 16.191 -33.4186 14.7868C-33.0524 14.639 -32.9791 14.639 -32.9059 14.7129C-32.5396 15.452 -31.7339 16.191 -30.6352 16.191C-28.8039 16.191 -26.0204 14.5651 -24.6287 13.8261C-24.5554 13.7522 -24.3357 13.7522 -24.2624 13.9C-23.5299 14.8607 -22.7974 15.3781 -21.1859 15.3781C-20.2337 15.3781 -19.2814 15.1564 -18.6222 14.8607C-18.4757 14.7868 -18.3292 14.7868 -18.1827 14.9346C-17.6699 15.5998 -16.7909 15.9693 -15.9119 15.9693C-14.0074 15.9693 -12.1029 14.8607 -11.4437 14.3434C-11.2972 14.2695 -11.0774 14.1956 -11.0042 14.4173C-10.5647 15.0824 -9.97869 15.8954 -8.3672 15.8954C-6.82895 15.8954 -5.7302 14.639 -5.4372 14.4173C-5.2907 14.3434 -5.1442 14.2695 -5.07095 14.4912C-4.7047 15.3042 -3.89895 16.0432 -2.3607 16.0432C-1.55495 16.0432 -0.382957 15.6737 0.349541 15.3042C0.49604 15.2303 0.642536 15.2303 0.78904 15.3042C1.37504 15.6737 1.96104 15.9693 2.98653 15.9693C5.25728 15.9693 6.94203 14.3434 8.48027 12.8653C9.28603 12.0524 9.43253 11.8307 10.9708 10.057C11.9963 8.9484 13.3148 7.32251 15.146 5.69662C16.7575 4.21854 18.2225 3.33169 19.1015 3.33169C19.834 3.33169 19.9805 3.92292 19.9805 4.21854C19.9805 4.36635 19.9805 4.44025 19.834 4.51415C18.662 5.2532 16.1715 7.0269 14.1205 9.02231C12.0695 11.0916 10.165 13.4566 10.165 15.0085C10.165 15.9693 10.6778 16.191 11.4103 16.191C13.095 16.191 15.2925 14.4173 16.9773 12.5697C18.2958 11.1655 19.3945 9.53964 20.0538 8.50498C20.127 8.35717 20.2003 8.28327 20.3468 8.43108C20.7863 8.9484 21.885 9.09621 22.764 9.09621C23.7895 9.09621 24.4487 8.9484 24.7417 8.8745C24.8883 8.8745 25.108 8.8006 25.2545 9.09621C25.401 9.39183 25.6207 9.68745 25.694 10.1309C25.694 10.2787 25.694 10.3526 25.401 10.4265C22.9837 10.8699 20.2003 11.609 18.076 12.5697C16.9773 13.087 16.3913 13.8261 16.3913 14.5651C16.3913 16.1171 18.1493 18.1125 21.2258 18.1125C22.9105 18.1125 23.8627 17.6691 24.815 17.1518C26.9392 16.0432 28.4775 13.9 28.5507 11.7568C28.5507 11.535 28.624 11.3872 28.917 11.3872C29.21 11.3872 30.089 11.3133 30.382 11.3133C30.7482 11.3133 31.3342 11.3133 31.554 11.3133C31.7005 11.3133 31.7737 11.3872 31.7005 11.4611C31.261 11.9785 30.6017 12.9392 30.6017 13.9C30.6017 14.7868 31.1877 15.8954 32.8725 15.8954C34.777 15.8954 36.4617 14.5651 37.1942 13.9739C37.2675 13.9 37.5605 13.7522 37.6337 13.9739C37.8535 14.4912 38.2197 15.452 39.3917 15.452C40.7102 15.452 41.6625 14.5651 42.2485 14.1217C42.395 14.0478 42.688 13.8261 42.7612 14.1217C42.9077 14.4173 43.4937 15.6737 44.8122 15.7476C46.4237 15.7476 47.7422 14.2695 47.8887 14.1217C47.962 14.0478 48.3282 13.8261 48.4747 14.1217C49.0607 15.1564 50.013 15.8954 51.5512 15.8954C52.5767 15.8954 52.9429 15.5998 53.6022 15.452C53.7487 15.452 53.8219 15.3781 53.9684 15.452C54.1149 15.5259 54.7742 15.8215 55.7997 15.8215C59.8284 15.8215 62.0992 11.6829 62.6852 10.796C62.8317 10.6482 62.8317 10.5743 62.9782 10.5743C63.1247 10.6482 63.5642 10.796 63.7107 10.9438C63.8572 11.0916 63.9304 11.2394 63.8572 11.3872C63.7839 11.6829 63.1247 13.0131 63.1247 13.6044C63.1247 13.9739 63.2712 14.1956 63.3444 14.3434C63.4177 14.4912 64.4432 15.9693 65.3222 15.9693C65.7617 15.9693 66.3477 15.7476 66.7139 15.5998C68.3987 14.8607 71.6949 12.9392 73.9657 11.8307C74.2587 11.6829 75.0644 11.3133 75.5039 11.3133C75.8701 11.3133 75.9434 11.6829 75.9434 11.7568C75.9434 11.8307 75.7969 12.2741 75.7237 12.4219C75.6504 12.5697 75.7236 12.6436 75.8701 12.6436C76.0166 12.6436 76.0899 12.5697 76.0899 12.4958C76.7492 11.8307 76.9689 11.2394 76.9689 10.5004C76.9689 9.53964 76.2364 8.9484 75.4307 8.9484C74.4052 8.9484 73.6727 9.39183 72.8669 9.76135C71.9879 10.2048 67.1534 13.1609 66.8604 13.3087C66.5674 13.4566 66.0547 13.7522 65.7617 13.7522C65.3954 13.7522 65.1024 13.5305 65.1024 13.1609C65.1024 12.8653 65.1757 12.7175 65.2489 12.6436C65.3954 12.2741 66.0547 11.2394 66.0547 10.5004C66.0547 9.98306 65.7617 9.68745 65.6152 9.61354C65.2489 9.31792 64.8094 9.24402 64.2234 8.8745C63.0514 8.20936 63.1247 7.98765 62.5387 7.98765C61.8794 7.98765 61.0737 8.72669 61.0737 9.46573C61.0737 9.83525 61.2202 9.98306 61.2934 10.1309C61.3667 10.2048 61.4399 10.3526 61.4399 10.4265C61.4399 10.5004 61.3667 10.7221 61.3667 10.796C60.7074 11.9046 58.5832 14.1956 56.3857 14.1217C56.1659 14.1217 56.0927 14.1217 56.0927 13.9739C56.0927 13.9 56.1659 13.8261 56.2392 13.8261C57.0449 13.2348 58.8029 11.535 58.8029 9.98306C58.8029 9.76135 58.7297 9.39183 58.5099 9.02231C58.3634 8.72669 57.8507 7.83984 57.0449 7.83984C56.3857 7.83984 54.9939 8.35717 53.9684 9.24402C52.9429 10.1309 52.2104 11.3133 52.2104 12.5697C52.2104 13.1609 52.4302 13.7522 52.5767 13.9C52.6499 14.0478 52.6499 14.1956 52.4302 14.2695C52.2837 14.3434 51.8442 14.4173 51.5512 14.4173C50.5257 14.4173 49.9397 13.7522 49.9397 12.7914C49.9397 11.8307 50.5257 10.6482 50.9652 9.98306C51.185 9.68745 50.9652 9.46573 50.7454 9.39183C50.5257 9.31792 50.3059 9.24402 50.0129 9.24402C49.7932 9.24402 49.3537 9.24402 49.0607 9.68745C48.6945 10.2048 48.1817 11.535 47.962 11.8307C47.669 12.2741 46.5702 13.7522 45.1052 13.7522C44.739 13.7522 44.0797 13.5305 44.0797 12.7914C44.0797 11.9046 44.8122 10.7221 45.325 10.1309C45.3982 9.98306 45.5447 9.90916 45.5447 9.68745C45.5447 9.39183 45.1785 9.17012 44.5925 9.17012C44.0797 9.17012 43.86 9.31792 43.6402 9.61354C43.0542 10.3526 42.6147 11.0916 42.0287 11.8307C41.4427 12.5697 40.7102 13.1609 39.9045 13.1609C39.172 13.1609 38.6592 12.7175 38.6592 12.2741C38.6592 12.0524 38.7325 11.9046 38.8057 11.7568C38.9522 11.535 39.172 11.1655 39.3917 10.796C39.6115 10.4265 39.8312 10.1309 39.8312 9.68745C39.8312 9.09621 39.2452 8.28327 37.414 8.28327C35.949 8.28327 34.4107 9.02231 33.5317 9.53964C33.3852 10.1309 33.312 10.2048 32.9457 10.2048ZM-0.0167084 6.80518C0.276291 6.80518 0.496044 6.58347 0.496044 6.14005C0.496044 5.62272 -0.0899582 4.51415 -0.456207 4.21854C-0.675957 3.99682 -0.89571 3.92292 -1.11546 3.92292C-1.48171 3.92292 -1.77471 4.14463 -1.77471 4.51415C-1.77471 4.73587 -1.62821 4.88368 -1.48171 4.95758C-1.11546 5.3271 -0.749207 5.69662 -0.456207 6.36176C-0.382957 6.50957 -0.309708 6.80518 -0.0167084 6.80518Z" fill="#8CCCE0"/>
    <path d="M67.1534 9.83502C66.7139 9.83502 66.4209 9.5394 66.4209 9.09598C66.4209 8.65255 66.7139 8.35693 67.1534 8.35693C67.5929 8.35693 67.8859 8.65255 67.8859 9.09598C67.8859 9.4655 67.5196 9.83502 67.1534 9.83502ZM67.1534 8.43084C66.7871 8.43084 66.4941 8.72645 66.4941 9.09598C66.4941 9.4655 66.7871 9.76111 67.1534 9.76111C67.5196 9.76111 67.8126 9.4655 67.8126 9.09598C67.7394 8.65255 67.5196 8.43084 67.1534 8.43084ZM67.2999 9.09598L67.4464 9.4655H67.2999L67.1534 9.16988H67.0069V9.4655H66.8604V8.65255H67.2266C67.3731 8.65255 67.5196 8.72645 67.5196 8.87426C67.4464 9.02207 67.3731 9.09598 67.2999 9.09598ZM67.2266 8.72645H67.0069V8.94817H67.2266C67.2999 8.94817 67.3731 8.94817 67.3731 8.80036C67.2999 8.80036 67.2999 8.72645 67.2266 8.72645Z" fill="#8CCCE0"/>
  </g>
</svg>