<svg xmlns="http://www.w3.org/2000/svg" width="70" height="51" viewBox="0 0 70 51" fill="none">
  <g opacity="0.25">
    <path d="M17.3206 50.9899L23.2447 45.1172V16.4122L16.9915 10.5936H1.19141V50.9899H17.3206ZM9.36657 43.7995V18.608H13.262V43.7995H9.36657ZM26.2067 10.5936H35.3139V50.9899H26.2067V10.5936ZM60.3293 26.0723H51.4419V18.1684H47.4925V43.3611H51.4419V33.701H60.3293V45.1172L54.2946 50.9346H44.9148L38.3865 45.1172V16.4122L44.3672 10.5936H54.2959L60.3305 16.4122L60.3293 26.0723ZM72.3432 27.8284H72.4525L78.3792 10.5936H87.7589L79.8602 29.42L88.9661 50.9346H79.0927L72.4525 33.701H72.3432V50.9346H63.182V10.5936H72.3432V27.8284ZM118.698 10.5936L125.116 16.4122V23.6013H116.01V18.1684H112.224V26.4014L118.863 26.9503L125.116 32.823V45.1172L119.137 50.9346H109.043L103.118 45.1172V37.9821H112.224V43.3611H116.01V34.9069L109.482 34.4133L103.118 28.5406V16.4109L109.097 10.5923L118.698 10.5936Z" fill="#8CCCE0"/>
    <path d="M16.8266 50.3867L22.6967 44.5141V15.8643L16.4422 9.9917H0.64209V50.3854L16.8266 50.3867ZM8.81726 43.1976V18.0049H12.7126V43.1976H8.81726ZM25.714 9.9917H34.8199V50.3854H25.714V9.9917ZM59.7799 25.4691H50.8926V17.6205H46.9972V42.7579H50.8926V33.1532H59.7799V44.5141L53.8006 50.3867H44.3643L37.8372 44.5141V15.8643L43.8153 9.9917H53.8006L59.7799 15.8643V25.4691ZM71.7939 27.2252H71.9032L77.8839 9.9917H87.2096L79.3096 28.8721L88.4155 50.3867H78.5421L71.9032 33.1532H71.7939V50.3854H62.688V9.9917H71.7939V27.2252ZM118.149 9.9917L124.567 15.8643V22.9995H115.461V17.6205H111.676V25.7982L118.314 26.4025L124.567 32.2198V44.5141L118.589 50.3867H108.494L102.569 44.5141V37.4342H111.676V42.7579H115.461V34.3051L108.933 33.8114L102.569 27.9388V15.8643L108.548 9.9917H118.149Z" fill="#8CCCE0"/>
  </g>
</svg>