<svg xmlns="http://www.w3.org/2000/svg" width="45" height="45" viewBox="0 0 45 45" fill="none">
  <path d="M22.5 40.3125C27.2242 40.3125 31.7548 38.4358 35.0953 35.0953C38.4358 31.7548 40.3125 27.2242 40.3125 22.5C40.3125 17.7758 38.4358 13.2452 35.0953 9.90466C31.7548 6.56417 27.2242 4.6875 22.5 4.6875C17.7758 4.6875 13.2452 6.56417 9.90466 9.90466C6.56417 13.2452 4.6875 17.7758 4.6875 22.5C4.6875 27.2242 6.56417 31.7548 9.90466 35.0953C13.2452 38.4358 17.7758 40.3125 22.5 40.3125Z" stroke="white" stroke-width="3.82979" stroke-linecap="round" stroke-linejoin="round"/>
  <path d="M4.6875 22.5H40.3125M22.5 40.3125C26.8725 40.3125 30.4163 32.3381 30.4163 22.5C30.4163 12.6619 26.8725 4.6875 22.5 4.6875C18.1275 4.6875 14.5837 12.6619 14.5837 22.5C14.5837 32.3381 18.1275 40.3125 22.5 40.3125Z" stroke="white" stroke-width="3.82979" stroke-linecap="round" stroke-linejoin="round"/>
</svg>