<svg width="339" height="540" viewBox="0 0 339 540" fill="none" xmlns="http://www.w3.org/2000/svg">
<mask id="mask0_2001_215" style="mask-type:alpha" maskUnits="userSpaceOnUse" x="0" y="0" width="339" height="540">
<rect width="339" height="540" fill="url(#paint0_radial_2001_215)"/>
</mask>
<g mask="url(#mask0_2001_215)">
<rect x="-5" y="51" width="24" height="24" rx="4" fill="#FAFAFA" style="mix-blend-mode:soft-light"/>
<rect x="23" y="51" width="24" height="24" rx="4" fill="#FAFAFA" style="mix-blend-mode:soft-light"/>
<rect x="51" y="51" width="24" height="24" rx="4" fill="#FAFAFA" style="mix-blend-mode:soft-light"/>
<rect x="79" y="51" width="24" height="24" rx="4" fill="#FAFAFA" style="mix-blend-mode:soft-light"/>
<rect x="107" y="51" width="24" height="24" rx="4" fill="#FAFAFA" style="mix-blend-mode:soft-light"/>
<rect x="135" y="51" width="24" height="24" rx="4" fill="#FAFAFA" style="mix-blend-mode:soft-light"/>
<rect x="163" y="51" width="24" height="24" rx="4" fill="#FAFAFA" style="mix-blend-mode:soft-light"/>
<rect x="191" y="51" width="24" height="24" rx="4" fill="#FAFAFA" style="mix-blend-mode:soft-light"/>
<rect x="219" y="51" width="24" height="24" rx="4" fill="#FAFAFA" style="mix-blend-mode:soft-light"/>
<rect x="247" y="51" width="24" height="24" rx="4" fill="#FAFAFA" style="mix-blend-mode:soft-light"/>
<rect x="275" y="51" width="24" height="24" rx="4" fill="#FAFAFA" style="mix-blend-mode:soft-light"/>
<rect x="303" y="51" width="24" height="24" rx="4" fill="#FAFAFA" style="mix-blend-mode:soft-light"/>
<rect x="331" y="51" width="24" height="24" rx="4" fill="#FAFAFA" style="mix-blend-mode:soft-light"/>
<rect x="-5" y="23" width="24" height="24" rx="4" fill="#FAFAFA" style="mix-blend-mode:soft-light"/>
<rect x="23" y="23" width="24" height="24" rx="4" fill="#FAFAFA" style="mix-blend-mode:soft-light"/>
<rect x="51" y="23" width="24" height="24" rx="4" fill="#FAFAFA" style="mix-blend-mode:soft-light"/>
<rect x="79" y="23" width="24" height="24" rx="4" fill="#FAFAFA" style="mix-blend-mode:soft-light"/>
<rect x="107" y="23" width="24" height="24" rx="4" fill="#FAFAFA" style="mix-blend-mode:soft-light"/>
<rect x="135" y="23" width="24" height="24" rx="4" fill="#FAFAFA" style="mix-blend-mode:soft-light"/>
<rect x="163" y="23" width="24" height="24" rx="4" fill="#FAFAFA" style="mix-blend-mode:soft-light"/>
<rect x="191" y="23" width="24" height="24" rx="4" fill="#FAFAFA" style="mix-blend-mode:soft-light"/>
<rect x="219" y="23" width="24" height="24" rx="4" fill="#FAFAFA" style="mix-blend-mode:soft-light"/>
<rect x="247" y="23" width="24" height="24" rx="4" fill="#FAFAFA" style="mix-blend-mode:soft-light"/>
<rect x="275" y="23" width="24" height="24" rx="4" fill="#FAFAFA" style="mix-blend-mode:soft-light"/>
<rect x="303" y="23" width="24" height="24" rx="4" fill="#FAFAFA" style="mix-blend-mode:soft-light"/>
<rect x="331" y="23" width="24" height="24" rx="4" fill="#FAFAFA" style="mix-blend-mode:soft-light"/>
<rect x="-5" y="-5" width="24" height="24" rx="4" fill="#FAFAFA" style="mix-blend-mode:soft-light"/>
<rect x="23" y="-5" width="24" height="24" rx="4" fill="#FAFAFA" style="mix-blend-mode:soft-light"/>
<rect x="51" y="-5" width="24" height="24" rx="4" fill="#FAFAFA" style="mix-blend-mode:soft-light"/>
<rect x="79" y="-5" width="24" height="24" rx="4" fill="#FAFAFA" style="mix-blend-mode:soft-light"/>
<rect x="107" y="-5" width="24" height="24" rx="4" fill="#FAFAFA" style="mix-blend-mode:soft-light"/>
<rect x="135" y="-5" width="24" height="24" rx="4" fill="#FAFAFA" style="mix-blend-mode:soft-light"/>
<rect x="163" y="-5" width="24" height="24" rx="4" fill="#FAFAFA" style="mix-blend-mode:soft-light"/>
<rect x="191" y="-5" width="24" height="24" rx="4" fill="#FAFAFA" style="mix-blend-mode:soft-light"/>
<rect x="219" y="-5" width="24" height="24" rx="4" fill="#FAFAFA" style="mix-blend-mode:soft-light"/>
<rect x="247" y="-5" width="24" height="24" rx="4" fill="#FAFAFA" style="mix-blend-mode:soft-light"/>
<rect x="275" y="-5" width="24" height="24" rx="4" fill="#FAFAFA" style="mix-blend-mode:soft-light"/>
<rect x="303" y="-5" width="24" height="24" rx="4" fill="#FAFAFA" style="mix-blend-mode:soft-light"/>
<rect x="331" y="-5" width="24" height="24" rx="4" fill="#FAFAFA" style="mix-blend-mode:soft-light"/>
<rect x="-5" y="79" width="24" height="24" rx="4" fill="#FAFAFA" style="mix-blend-mode:soft-light"/>
<rect x="23" y="79" width="24" height="24" rx="4" fill="#FAFAFA" style="mix-blend-mode:soft-light"/>
<rect x="51" y="79" width="24" height="24" rx="4" fill="#FAFAFA" style="mix-blend-mode:soft-light"/>
<rect x="79" y="79" width="24" height="24" rx="4" fill="#FAFAFA" style="mix-blend-mode:soft-light"/>
<rect x="107" y="79" width="24" height="24" rx="4" fill="#FAFAFA" style="mix-blend-mode:soft-light"/>
<rect x="135" y="79" width="24" height="24" rx="4" fill="#FAFAFA" style="mix-blend-mode:soft-light"/>
<rect x="163" y="79" width="24" height="24" rx="4" fill="#FAFAFA" style="mix-blend-mode:soft-light"/>
<rect x="191" y="79" width="24" height="24" rx="4" fill="#FAFAFA" style="mix-blend-mode:soft-light"/>
<rect x="219" y="79" width="24" height="24" rx="4" fill="#FAFAFA" style="mix-blend-mode:soft-light"/>
<rect x="247" y="79" width="24" height="24" rx="4" fill="#FAFAFA" style="mix-blend-mode:soft-light"/>
<rect x="275" y="79" width="24" height="24" rx="4" fill="#FAFAFA" style="mix-blend-mode:soft-light"/>
<rect x="303" y="79" width="24" height="24" rx="4" fill="#FAFAFA" style="mix-blend-mode:soft-light"/>
<rect x="331" y="79" width="24" height="24" rx="4" fill="#FAFAFA" style="mix-blend-mode:soft-light"/>
<rect x="-5" y="107" width="24" height="24" rx="4" fill="#FAFAFA" style="mix-blend-mode:soft-light"/>
<rect x="23" y="107" width="24" height="24" rx="4" fill="#FAFAFA" style="mix-blend-mode:soft-light"/>
<rect x="51" y="107" width="24" height="24" rx="4" fill="#FAFAFA" style="mix-blend-mode:soft-light"/>
<rect x="79" y="107" width="24" height="24" rx="4" fill="#FAFAFA" style="mix-blend-mode:soft-light"/>
<rect x="107" y="107" width="24" height="24" rx="4" fill="#FAFAFA" style="mix-blend-mode:soft-light"/>
<rect x="135" y="107" width="24" height="24" rx="4" fill="#FAFAFA" style="mix-blend-mode:soft-light"/>
<rect x="163" y="107" width="24" height="24" rx="4" fill="#FAFAFA" style="mix-blend-mode:soft-light"/>
<rect x="191" y="107" width="24" height="24" rx="4" fill="#FAFAFA" style="mix-blend-mode:soft-light"/>
<rect x="219" y="107" width="24" height="24" rx="4" fill="#FAFAFA" style="mix-blend-mode:soft-light"/>
<rect x="247" y="107" width="24" height="24" rx="4" fill="#FAFAFA" style="mix-blend-mode:soft-light"/>
<rect x="275" y="107" width="24" height="24" rx="4" fill="#FAFAFA" style="mix-blend-mode:soft-light"/>
<rect x="303" y="107" width="24" height="24" rx="4" fill="#FAFAFA" style="mix-blend-mode:soft-light"/>
<rect x="331" y="107" width="24" height="24" rx="4" fill="#FAFAFA" style="mix-blend-mode:soft-light"/>
<rect x="-5" y="135" width="24" height="24" rx="4" fill="#FAFAFA" style="mix-blend-mode:soft-light"/>
<rect x="23" y="135" width="24" height="24" rx="4" fill="#FAFAFA" style="mix-blend-mode:soft-light"/>
<rect x="51" y="135" width="24" height="24" rx="4" fill="#FAFAFA" style="mix-blend-mode:soft-light"/>
<rect x="79" y="135" width="24" height="24" rx="4" fill="#FAFAFA" style="mix-blend-mode:soft-light"/>
<rect x="107" y="135" width="24" height="24" rx="4" fill="#FAFAFA" style="mix-blend-mode:soft-light"/>
<rect x="135" y="135" width="24" height="24" rx="4" fill="#FAFAFA" style="mix-blend-mode:soft-light"/>
<rect x="163" y="135" width="24" height="24" rx="4" fill="url(#paint1_linear_2001_215)" style="mix-blend-mode:plus-lighter"/>
<rect x="191" y="135" width="24" height="24" rx="4" fill="#FAFAFA" style="mix-blend-mode:soft-light"/>
<rect x="219" y="135" width="24" height="24" rx="4" fill="#FAFAFA" style="mix-blend-mode:soft-light"/>
<rect x="247" y="135" width="24" height="24" rx="4" fill="#FAFAFA" style="mix-blend-mode:soft-light"/>
<rect x="275" y="135" width="24" height="24" rx="4" fill="#FAFAFA" style="mix-blend-mode:soft-light"/>
<rect x="303" y="135" width="24" height="24" rx="4" fill="#FAFAFA" style="mix-blend-mode:soft-light"/>
<rect x="331" y="135" width="24" height="24" rx="4" fill="#FAFAFA" style="mix-blend-mode:soft-light"/>
<rect x="-5" y="163" width="24" height="24" rx="4" fill="#FAFAFA" style="mix-blend-mode:soft-light"/>
<rect x="23" y="163" width="24" height="24" rx="4" fill="#FAFAFA" style="mix-blend-mode:soft-light"/>
<rect x="51" y="163" width="24" height="24" rx="4" fill="#FAFAFA" style="mix-blend-mode:soft-light"/>
<rect x="79" y="163" width="24" height="24" rx="4" fill="#8CCCE0" style="mix-blend-mode:plus-lighter"/>
<rect x="107" y="163" width="24" height="24" rx="4" fill="#FAFAFA" style="mix-blend-mode:soft-light"/>
<rect x="135" y="163" width="24" height="24" rx="4" fill="url(#paint2_linear_2001_215)" style="mix-blend-mode:plus-lighter"/>
<rect x="163" y="163" width="24" height="24" rx="4" fill="#FAFAFA" style="mix-blend-mode:soft-light"/>
<rect x="191" y="163" width="24" height="24" rx="4" fill="#FAFAFA" style="mix-blend-mode:soft-light"/>
<rect x="219" y="163" width="24" height="24" rx="4" fill="#FAFAFA" style="mix-blend-mode:soft-light"/>
<rect x="247" y="163" width="24" height="24" rx="4" fill="#FAFAFA" style="mix-blend-mode:soft-light"/>
<rect x="275" y="163" width="24" height="24" rx="4" fill="#FAFAFA" style="mix-blend-mode:soft-light"/>
<rect x="303" y="163" width="24" height="24" rx="4" fill="#FAFAFA" style="mix-blend-mode:soft-light"/>
<rect x="331" y="163" width="24" height="24" rx="4" fill="#FAFAFA" style="mix-blend-mode:soft-light"/>
<rect x="-5" y="191" width="24" height="24" rx="4" fill="#FAFAFA" style="mix-blend-mode:soft-light"/>
<rect x="23" y="191" width="24" height="24" rx="4" fill="#FAFAFA" style="mix-blend-mode:soft-light"/>
<rect x="51" y="191" width="24" height="24" rx="4" fill="#FAFAFA" style="mix-blend-mode:soft-light"/>
<rect x="79" y="191" width="24" height="24" rx="4" fill="#FAFAFA" style="mix-blend-mode:soft-light"/>
<rect x="107" y="191" width="24" height="24" rx="4" fill="#FAFAFA" style="mix-blend-mode:soft-light"/>
<rect x="135" y="191" width="24" height="24" rx="4" fill="#FAFAFA" style="mix-blend-mode:soft-light"/>
<rect x="163" y="191" width="24" height="24" rx="4" fill="#FAFAFA" style="mix-blend-mode:soft-light"/>
<rect x="191" y="191" width="24" height="24" rx="4" fill="url(#paint3_linear_2001_215)" style="mix-blend-mode:plus-lighter"/>
<rect x="219" y="191" width="24" height="24" rx="4" fill="#FAFAFA" style="mix-blend-mode:soft-light"/>
<rect x="247" y="191" width="24" height="24" rx="4" fill="#FAFAFA" style="mix-blend-mode:soft-light"/>
<rect x="275" y="191" width="24" height="24" rx="4" fill="#FAFAFA" style="mix-blend-mode:soft-light"/>
<rect x="303" y="191" width="24" height="24" rx="4" fill="#FAFAFA" style="mix-blend-mode:soft-light"/>
<rect x="331" y="191" width="24" height="24" rx="4" fill="#FAFAFA" style="mix-blend-mode:soft-light"/>
<rect x="-5" y="219" width="24" height="24" rx="4" fill="#FAFAFA" style="mix-blend-mode:soft-light"/>
<rect x="23" y="219" width="24" height="24" rx="4" fill="#FAFAFA" style="mix-blend-mode:soft-light"/>
<rect x="51" y="219" width="24" height="24" rx="4" fill="#FAFAFA" style="mix-blend-mode:soft-light"/>
<rect x="79" y="219" width="24" height="24" rx="4" fill="#FAFAFA" style="mix-blend-mode:soft-light"/>
<rect x="107" y="219" width="24" height="24" rx="4" fill="#8CCCE0" style="mix-blend-mode:plus-lighter"/>
<rect x="135" y="219" width="24" height="24" rx="4" fill="#FAFAFA" style="mix-blend-mode:soft-light"/>
<rect x="163" y="219" width="24" height="24" rx="4" fill="#FAFAFA" style="mix-blend-mode:soft-light"/>
<rect x="191" y="219" width="24" height="24" rx="4" fill="#FAFAFA" style="mix-blend-mode:soft-light"/>
<rect x="219" y="219" width="24" height="24" rx="4" fill="#FAFAFA" style="mix-blend-mode:soft-light"/>
<rect x="247" y="219" width="24" height="24" rx="4" fill="#FAFAFA" style="mix-blend-mode:soft-light"/>
<rect x="275" y="219" width="24" height="24" rx="4" fill="#FAFAFA" style="mix-blend-mode:soft-light"/>
<rect x="303" y="219" width="24" height="24" rx="4" fill="#FAFAFA" style="mix-blend-mode:soft-light"/>
<rect x="331" y="219" width="24" height="24" rx="4" fill="#FAFAFA" style="mix-blend-mode:soft-light"/>
<rect x="-5" y="247" width="24" height="24" rx="4" fill="#FAFAFA" style="mix-blend-mode:soft-light"/>
<rect x="23" y="247" width="24" height="24" rx="4" fill="#FAFAFA" style="mix-blend-mode:soft-light"/>
<rect x="51" y="247" width="24" height="24" rx="4" fill="#FAFAFA" style="mix-blend-mode:soft-light"/>
<rect x="79" y="247" width="24" height="24" rx="4" fill="#FAFAFA" style="mix-blend-mode:soft-light"/>
<rect x="107" y="247" width="24" height="24" rx="4" fill="#FAFAFA" style="mix-blend-mode:soft-light"/>
<rect x="135" y="247" width="24" height="24" rx="4" fill="#FAFAFA" style="mix-blend-mode:soft-light"/>
<rect x="163" y="247" width="24" height="24" rx="4" fill="#FAFAFA" style="mix-blend-mode:soft-light"/>
<rect x="191" y="247" width="24" height="24" rx="4" fill="#FAFAFA" style="mix-blend-mode:soft-light"/>
<rect x="219" y="247" width="24" height="24" rx="4" fill="#FAFAFA" style="mix-blend-mode:soft-light"/>
<rect x="247" y="247" width="24" height="24" rx="4" fill="url(#paint4_linear_2001_215)" style="mix-blend-mode:plus-lighter"/>
<rect x="275" y="247" width="24" height="24" rx="4" fill="#FAFAFA" style="mix-blend-mode:soft-light"/>
<rect x="303" y="247" width="24" height="24" rx="4" fill="#FAFAFA" style="mix-blend-mode:soft-light"/>
<rect x="331" y="247" width="24" height="24" rx="4" fill="#FAFAFA" style="mix-blend-mode:soft-light"/>
<rect x="-5" y="275" width="24" height="24" rx="4" fill="#FAFAFA" style="mix-blend-mode:soft-light"/>
<rect x="23" y="275" width="24" height="24" rx="4" fill="#FAFAFA" style="mix-blend-mode:soft-light"/>
<rect x="51" y="275" width="24" height="24" rx="4" fill="#FAFAFA" style="mix-blend-mode:soft-light"/>
<rect x="79" y="275" width="24" height="24" rx="4" fill="#FAFAFA" style="mix-blend-mode:soft-light"/>
<rect x="107" y="275" width="24" height="24" rx="4" fill="#FAFAFA" style="mix-blend-mode:soft-light"/>
<rect x="135" y="275" width="24" height="24" rx="4" fill="url(#paint5_linear_2001_215)" style="mix-blend-mode:plus-lighter"/>
<rect x="163" y="275" width="24" height="24" rx="4" fill="#FAFAFA" style="mix-blend-mode:soft-light"/>
<rect x="191" y="275" width="24" height="24" rx="4" fill="#FAFAFA" style="mix-blend-mode:soft-light"/>
<rect x="219" y="275" width="24" height="24" rx="4" fill="#8CCCE0" style="mix-blend-mode:lighten"/>
<rect x="247" y="275" width="24" height="24" rx="4" fill="#FAFAFA" style="mix-blend-mode:soft-light"/>
<rect x="275" y="275" width="24" height="24" rx="4" fill="#FAFAFA" style="mix-blend-mode:soft-light"/>
<rect x="303" y="275" width="24" height="24" rx="4" fill="#FAFAFA" style="mix-blend-mode:soft-light"/>
<rect x="331" y="275" width="24" height="24" rx="4" fill="#FAFAFA" style="mix-blend-mode:soft-light"/>
<rect x="-5" y="303" width="24" height="24" rx="4" fill="#FAFAFA" style="mix-blend-mode:soft-light"/>
<rect x="23" y="303" width="24" height="24" rx="4" fill="#FAFAFA" style="mix-blend-mode:soft-light"/>
<rect x="51" y="303" width="24" height="24" rx="4" fill="#FAFAFA" style="mix-blend-mode:soft-light"/>
<rect x="79" y="303" width="24" height="24" rx="4" fill="#FAFAFA" style="mix-blend-mode:soft-light"/>
<rect x="107" y="303" width="24" height="24" rx="4" fill="#FAFAFA" style="mix-blend-mode:soft-light"/>
<rect x="135" y="303" width="24" height="24" rx="4" fill="#FAFAFA" style="mix-blend-mode:soft-light"/>
<rect x="163" y="303" width="24" height="24" rx="4" fill="#FAFAFA" style="mix-blend-mode:soft-light"/>
<rect x="191" y="303" width="24" height="24" rx="4" fill="#FAFAFA" style="mix-blend-mode:soft-light"/>
<rect x="247" y="303" width="24" height="24" rx="4" fill="#FAFAFA" style="mix-blend-mode:soft-light"/>
<rect x="275" y="303" width="24" height="24" rx="4" fill="#FAFAFA" style="mix-blend-mode:soft-light"/>
<rect x="303" y="303" width="24" height="24" rx="4" fill="#FAFAFA" style="mix-blend-mode:soft-light"/>
<rect x="331" y="303" width="24" height="24" rx="4" fill="#FAFAFA" style="mix-blend-mode:soft-light"/>
<rect x="-5" y="331" width="24" height="24" rx="4" fill="url(#paint6_linear_2001_215)" style="mix-blend-mode:plus-lighter"/>
<rect x="23" y="331" width="24" height="24" rx="4" fill="url(#paint7_linear_2001_215)" style="mix-blend-mode:plus-lighter"/>
<rect x="51" y="331" width="24" height="24" rx="4" fill="#FAFAFA" style="mix-blend-mode:soft-light"/>
<rect x="79" y="331" width="24" height="24" rx="4" fill="#FAFAFA" style="mix-blend-mode:soft-light"/>
<rect x="107" y="331" width="24" height="24" rx="4" fill="#FAFAFA" style="mix-blend-mode:soft-light"/>
<rect x="135" y="331" width="24" height="24" rx="4" fill="#FAFAFA" style="mix-blend-mode:soft-light"/>
<rect x="163" y="331" width="24" height="24" rx="4" fill="#FAFAFA" style="mix-blend-mode:soft-light"/>
<rect x="191" y="331" width="24" height="24" rx="4" fill="#FAFAFA" style="mix-blend-mode:soft-light"/>
<rect x="247" y="331" width="24" height="24" rx="4" fill="url(#paint8_linear_2001_215)" style="mix-blend-mode:plus-lighter"/>
<rect x="275" y="331" width="24" height="24" rx="4" fill="url(#paint9_linear_2001_215)" style="mix-blend-mode:plus-lighter"/>
<rect x="303" y="331" width="24" height="24" rx="4" fill="#FAFAFA" style="mix-blend-mode:soft-light"/>
<rect x="331" y="331" width="24" height="24" rx="4" fill="#FAFAFA" style="mix-blend-mode:soft-light"/>
<rect x="-5" y="359" width="24" height="24" rx="4" fill="#FAFAFA" style="mix-blend-mode:soft-light"/>
<rect x="23" y="359" width="24" height="24" rx="4" fill="#FAFAFA" style="mix-blend-mode:soft-light"/>
<rect x="51" y="359" width="24" height="24" rx="4" fill="#FAFAFA" style="mix-blend-mode:soft-light"/>
<rect x="79" y="359" width="24" height="24" rx="4" fill="#FAFAFA" style="mix-blend-mode:soft-light"/>
<rect width="24" height="24" rx="4" transform="matrix(1 0 0 -1 107 383)" fill="#8CCCE0" style="mix-blend-mode:plus-lighter"/>
<rect x="135" y="359" width="24" height="24" rx="4" fill="url(#paint10_linear_2001_215)" style="mix-blend-mode:plus-lighter"/>
<rect x="163" y="359" width="24" height="24" rx="4" fill="#FAFAFA" style="mix-blend-mode:soft-light"/>
<rect x="191" y="359" width="24" height="24" rx="4" fill="#FAFAFA" style="mix-blend-mode:soft-light"/>
<rect x="219" y="359" width="24" height="24" rx="4" fill="#FAFAFA" style="mix-blend-mode:soft-light"/>
<rect x="247" y="359" width="24" height="24" rx="4" fill="#FAFAFA" style="mix-blend-mode:soft-light"/>
<rect x="275" y="359" width="24" height="24" rx="4" fill="#FAFAFA" style="mix-blend-mode:soft-light"/>
<rect x="303" y="359" width="24" height="24" rx="4" fill="#FAFAFA" style="mix-blend-mode:soft-light"/>
<rect x="331" y="359" width="24" height="24" rx="4" fill="#FAFAFA" style="mix-blend-mode:soft-light"/>
<rect x="-5" y="387" width="24" height="24" rx="4" fill="#FAFAFA" style="mix-blend-mode:soft-light"/>
<rect x="23" y="387" width="24" height="24" rx="4" fill="#FAFAFA" style="mix-blend-mode:soft-light"/>
<rect x="51" y="387" width="24" height="24" rx="4" fill="#FAFAFA" style="mix-blend-mode:soft-light"/>
<rect x="79" y="387" width="24" height="24" rx="4" fill="#FAFAFA" style="mix-blend-mode:soft-light"/>
<rect x="107" y="387" width="24" height="24" rx="4" fill="url(#paint11_linear_2001_215)" style="mix-blend-mode:plus-lighter"/>
<rect x="135" y="387" width="24" height="24" rx="4" fill="#FAFAFA" style="mix-blend-mode:soft-light"/>
<rect x="163" y="387" width="24" height="24" rx="4" fill="url(#paint12_linear_2001_215)" style="mix-blend-mode:plus-lighter"/>
<rect x="191" y="387" width="24" height="24" rx="4" fill="#FAFAFA" style="mix-blend-mode:soft-light"/>
<rect x="219" y="387" width="24" height="24" rx="4" fill="#FAFAFA" style="mix-blend-mode:soft-light"/>
<rect x="247" y="387" width="24" height="24" rx="4" fill="#FAFAFA" style="mix-blend-mode:soft-light"/>
<rect x="275" y="387" width="24" height="24" rx="4" fill="#FAFAFA" style="mix-blend-mode:soft-light"/>
<rect x="303" y="387" width="24" height="24" rx="4" fill="#FAFAFA" style="mix-blend-mode:soft-light"/>
<rect x="331" y="387" width="24" height="24" rx="4" fill="#FAFAFA" style="mix-blend-mode:soft-light"/>
<rect x="-5" y="415" width="24" height="24" rx="4" fill="#FAFAFA" style="mix-blend-mode:soft-light"/>
<rect x="23" y="415" width="24" height="24" rx="4" fill="#FAFAFA" style="mix-blend-mode:soft-light"/>
<rect x="51" y="415" width="24" height="24" rx="4" fill="#FAFAFA" style="mix-blend-mode:soft-light"/>
<rect x="79" y="415" width="24" height="24" rx="4" fill="#FAFAFA" style="mix-blend-mode:soft-light"/>
<rect x="107" y="415" width="24" height="24" rx="4" fill="#FAFAFA" style="mix-blend-mode:soft-light"/>
<rect x="135" y="415" width="24" height="24" rx="4" fill="#FAFAFA" style="mix-blend-mode:soft-light"/>
<rect x="163" y="415" width="24" height="24" rx="4" fill="#FAFAFA" style="mix-blend-mode:soft-light"/>
<rect x="191" y="415" width="24" height="24" rx="4" fill="#FAFAFA" style="mix-blend-mode:soft-light"/>
<rect x="219" y="415" width="24" height="24" rx="4" fill="#FAFAFA" style="mix-blend-mode:soft-light"/>
<rect x="247" y="415" width="24" height="24" rx="4" fill="#FAFAFA" style="mix-blend-mode:soft-light"/>
<rect x="275" y="415" width="24" height="24" rx="4" fill="#FAFAFA" style="mix-blend-mode:soft-light"/>
<rect x="303" y="415" width="24" height="24" rx="4" fill="#FAFAFA" style="mix-blend-mode:soft-light"/>
<rect x="331" y="415" width="24" height="24" rx="4" fill="#FAFAFA" style="mix-blend-mode:soft-light"/>
<rect x="-5" y="443" width="24" height="24" rx="4" fill="#FAFAFA" style="mix-blend-mode:soft-light"/>
<rect x="23" y="443" width="24" height="24" rx="4" fill="#FAFAFA" style="mix-blend-mode:soft-light"/>
<rect x="51" y="443" width="24" height="24" rx="4" fill="url(#paint13_linear_2001_215)" style="mix-blend-mode:plus-lighter"/>
<rect x="79" y="443" width="24" height="24" rx="4" fill="#FAFAFA" style="mix-blend-mode:soft-light"/>
<rect x="107" y="443" width="24" height="24" rx="4" fill="url(#paint14_linear_2001_215)" style="mix-blend-mode:plus-lighter"/>
<rect x="135" y="443" width="24" height="24" rx="4" fill="#FAFAFA" style="mix-blend-mode:soft-light"/>
<rect x="163" y="443" width="24" height="24" rx="4" fill="#FAFAFA" style="mix-blend-mode:soft-light"/>
<rect x="191" y="443" width="24" height="24" rx="4" fill="#FAFAFA" style="mix-blend-mode:soft-light"/>
<rect x="219" y="443" width="24" height="24" rx="4" fill="#FAFAFA" style="mix-blend-mode:soft-light"/>
<rect x="247" y="443" width="24" height="24" rx="4" fill="#FAFAFA" style="mix-blend-mode:soft-light"/>
<rect x="275" y="443" width="24" height="24" rx="4" fill="#FAFAFA" style="mix-blend-mode:soft-light"/>
<rect x="303" y="443" width="24" height="24" rx="4" fill="#FAFAFA" style="mix-blend-mode:soft-light"/>
<rect x="331" y="443" width="24" height="24" rx="4" fill="#FAFAFA" style="mix-blend-mode:soft-light"/>
<rect x="-5" y="471" width="24" height="24" rx="4" fill="#FAFAFA" style="mix-blend-mode:soft-light"/>
<rect x="23" y="471" width="24" height="24" rx="4" fill="#FAFAFA" style="mix-blend-mode:soft-light"/>
<rect x="51" y="471" width="24" height="24" rx="4" fill="#FAFAFA" style="mix-blend-mode:soft-light"/>
<rect x="79" y="471" width="24" height="24" rx="4" fill="#FAFAFA" style="mix-blend-mode:soft-light"/>
<rect x="107" y="471" width="24" height="24" rx="4" fill="#FAFAFA" style="mix-blend-mode:soft-light"/>
<rect x="135" y="471" width="24" height="24" rx="4" fill="#FAFAFA" style="mix-blend-mode:soft-light"/>
<rect x="163" y="471" width="24" height="24" rx="4" fill="#FAFAFA" style="mix-blend-mode:soft-light"/>
<rect x="191" y="471" width="24" height="24" rx="4" fill="#FAFAFA" style="mix-blend-mode:soft-light"/>
<rect x="219" y="471" width="24" height="24" rx="4" fill="#FAFAFA" style="mix-blend-mode:soft-light"/>
<rect x="247" y="471" width="24" height="24" rx="4" fill="#FAFAFA" style="mix-blend-mode:soft-light"/>
<rect x="275" y="471" width="24" height="24" rx="4" fill="#FAFAFA" style="mix-blend-mode:soft-light"/>
<g opacity="0.5">
<rect x="303" y="471" width="24" height="24" rx="4" fill="url(#paint15_linear_2001_215)" style="mix-blend-mode:plus-lighter"/>
</g>
<g opacity="0.3">
<rect x="331" y="471" width="24" height="24" rx="4" fill="url(#paint16_linear_2001_215)" style="mix-blend-mode:plus-lighter"/>
</g>
<rect x="-5" y="499" width="24" height="24" rx="4" fill="#FAFAFA" style="mix-blend-mode:soft-light"/>
<rect x="23" y="499" width="24" height="24" rx="4" fill="#FAFAFA" style="mix-blend-mode:soft-light"/>
<rect x="51" y="499" width="24" height="24" rx="4" fill="#FAFAFA" style="mix-blend-mode:soft-light"/>
<rect x="79" y="499" width="24" height="24" rx="4" fill="#FAFAFA" style="mix-blend-mode:soft-light"/>
<rect x="107" y="499" width="24" height="24" rx="4" fill="#FAFAFA" style="mix-blend-mode:soft-light"/>
<rect x="135" y="499" width="24" height="24" rx="4" fill="#FAFAFA" style="mix-blend-mode:soft-light"/>
<rect x="163" y="499" width="24" height="24" rx="4" fill="#FAFAFA" style="mix-blend-mode:soft-light"/>
<rect x="191" y="499" width="24" height="24" rx="4" fill="#FAFAFA" style="mix-blend-mode:soft-light"/>
<rect x="219" y="499" width="24" height="24" rx="4" fill="url(#paint17_linear_2001_215)" fill-opacity="0.5" style="mix-blend-mode:plus-lighter"/>
<rect x="247" y="499" width="24" height="24" rx="4" fill="#FAFAFA" style="mix-blend-mode:soft-light"/>
<rect x="275" y="499" width="24" height="24" rx="4" fill="#FAFAFA" style="mix-blend-mode:soft-light"/>
<rect x="303" y="499" width="24" height="24" rx="4" fill="#FAFAFA" style="mix-blend-mode:soft-light"/>
<rect x="331" y="499" width="24" height="24" rx="4" fill="#FAFAFA" style="mix-blend-mode:soft-light"/>
<rect x="-5" y="527" width="24" height="24" rx="4" fill="#FAFAFA" style="mix-blend-mode:soft-light"/>
<rect x="23" y="527" width="24" height="24" rx="4" fill="#FAFAFA" style="mix-blend-mode:soft-light"/>
<rect x="51" y="527" width="24" height="24" rx="4" fill="#FAFAFA" style="mix-blend-mode:soft-light"/>
<rect x="79" y="527" width="24" height="24" rx="4" fill="#FAFAFA" style="mix-blend-mode:soft-light"/>
<rect x="107" y="527" width="24" height="24" rx="4" fill="#FAFAFA" style="mix-blend-mode:soft-light"/>
<rect x="135" y="527" width="24" height="24" rx="4" fill="#FAFAFA" style="mix-blend-mode:soft-light"/>
<rect x="163" y="527" width="24" height="24" rx="4" fill="#FAFAFA" style="mix-blend-mode:soft-light"/>
<rect x="191" y="527" width="24" height="24" rx="4" fill="#FAFAFA" style="mix-blend-mode:soft-light"/>
<rect x="219" y="527" width="24" height="24" rx="4" fill="#FAFAFA" style="mix-blend-mode:soft-light"/>
<rect x="247" y="527" width="24" height="24" rx="4" fill="#FAFAFA" style="mix-blend-mode:soft-light"/>
<rect x="275" y="527" width="24" height="24" rx="4" fill="url(#paint18_linear_2001_215)" fill-opacity="0.25" style="mix-blend-mode:plus-lighter"/>
<rect x="303" y="527" width="24" height="24" rx="4" fill="#FAFAFA" style="mix-blend-mode:soft-light"/>
<rect x="331" y="527" width="24" height="24" rx="4" fill="#FAFAFA" style="mix-blend-mode:soft-light"/>
</g>
<defs>
<radialGradient id="paint0_radial_2001_215" cx="0" cy="0" r="1" gradientUnits="userSpaceOnUse" gradientTransform="translate(79.5 57.5) rotate(76.6592) scale(539.56 453.354)">
<stop stop-color="#737373" stop-opacity="0"/>
<stop offset="0.381549" stop-color="#8F8F8F" stop-opacity="0.0852782"/>
<stop offset="0.486213" stop-color="#949494" stop-opacity="0.1"/>
<stop offset="0.696349" stop-color="#BABABA" stop-opacity="0"/>
<stop offset="0.946296" stop-color="#D9D9D9" stop-opacity="0"/>
</radialGradient>
<linearGradient id="paint1_linear_2001_215" x1="169.307" y1="147.71" x2="185.693" y2="139.79" gradientUnits="userSpaceOnUse">
<stop stop-color="#8CCCE0"/>
<stop offset="1" stop-color="#4C6F7A" stop-opacity="0.25"/>
</linearGradient>
<linearGradient id="paint2_linear_2001_215" x1="141.307" y1="175.71" x2="157.693" y2="167.79" gradientUnits="userSpaceOnUse">
<stop stop-color="#8CCCE0"/>
<stop offset="1" stop-color="#4C6F7A" stop-opacity="0.25"/>
</linearGradient>
<linearGradient id="paint3_linear_2001_215" x1="197.307" y1="203.71" x2="213.693" y2="195.79" gradientUnits="userSpaceOnUse">
<stop stop-color="#8CCCE0"/>
<stop offset="1" stop-color="#4C6F7A" stop-opacity="0.25"/>
</linearGradient>
<linearGradient id="paint4_linear_2001_215" x1="253.307" y1="259.71" x2="269.693" y2="251.79" gradientUnits="userSpaceOnUse">
<stop stop-color="#8CCCE0"/>
<stop offset="1" stop-color="#4C6F7A" stop-opacity="0.25"/>
</linearGradient>
<linearGradient id="paint5_linear_2001_215" x1="141.307" y1="287.71" x2="156" y2="305.5" gradientUnits="userSpaceOnUse">
<stop stop-color="#8CCCE0"/>
<stop offset="1" stop-color="#4C6F7A" stop-opacity="0.25"/>
</linearGradient>
<linearGradient id="paint6_linear_2001_215" x1="1.30686" y1="343.71" x2="17.6931" y2="335.79" gradientUnits="userSpaceOnUse">
<stop stop-color="#8CCCE0"/>
<stop offset="1" stop-color="#4C6F7A" stop-opacity="0.25"/>
</linearGradient>
<linearGradient id="paint7_linear_2001_215" x1="49" y1="332.5" x2="37.5" y2="367.5" gradientUnits="userSpaceOnUse">
<stop stop-color="#8CCCE0"/>
<stop offset="1" stop-color="#4C6F7A" stop-opacity="0.25"/>
</linearGradient>
<linearGradient id="paint8_linear_2001_215" x1="263.5" y1="351.5" x2="254" y2="334.5" gradientUnits="userSpaceOnUse">
<stop stop-color="#8CCCE0"/>
<stop offset="1" stop-color="#4C6F7A" stop-opacity="0.25"/>
</linearGradient>
<linearGradient id="paint9_linear_2001_215" x1="281.307" y1="343.71" x2="297.693" y2="335.79" gradientUnits="userSpaceOnUse">
<stop stop-color="#8CCCE0"/>
<stop offset="1" stop-color="#4C6F7A" stop-opacity="0.25"/>
</linearGradient>
<linearGradient id="paint10_linear_2001_215" x1="141.307" y1="371.71" x2="157.693" y2="363.79" gradientUnits="userSpaceOnUse">
<stop stop-color="#8CCCE0"/>
<stop offset="1" stop-color="#4C6F7A" stop-opacity="0.25"/>
</linearGradient>
<linearGradient id="paint11_linear_2001_215" x1="113.307" y1="399.71" x2="129.693" y2="391.79" gradientUnits="userSpaceOnUse">
<stop stop-color="#8CCCE0"/>
<stop offset="1" stop-color="#4C6F7A" stop-opacity="0.25"/>
</linearGradient>
<linearGradient id="paint12_linear_2001_215" x1="169.307" y1="399.71" x2="185.693" y2="391.79" gradientUnits="userSpaceOnUse">
<stop stop-color="#8CCCE0"/>
<stop offset="1" stop-color="#4C6F7A" stop-opacity="0.25"/>
</linearGradient>
<linearGradient id="paint13_linear_2001_215" x1="57.3069" y1="455.71" x2="73.6931" y2="447.79" gradientUnits="userSpaceOnUse">
<stop stop-color="#8CCCE0"/>
<stop offset="1" stop-color="#4C6F7A" stop-opacity="0.25"/>
</linearGradient>
<linearGradient id="paint14_linear_2001_215" x1="113.307" y1="455.71" x2="129.693" y2="447.79" gradientUnits="userSpaceOnUse">
<stop stop-color="#8CCCE0"/>
<stop offset="1" stop-color="#4C6F7A" stop-opacity="0.25"/>
</linearGradient>
<linearGradient id="paint15_linear_2001_215" x1="309.307" y1="483.71" x2="325.693" y2="475.79" gradientUnits="userSpaceOnUse">
<stop stop-color="#8CCCE0"/>
<stop offset="1" stop-color="#4C6F7A" stop-opacity="0.25"/>
</linearGradient>
<linearGradient id="paint16_linear_2001_215" x1="337.307" y1="483.71" x2="353.693" y2="475.79" gradientUnits="userSpaceOnUse">
<stop stop-color="#8CCCE0"/>
<stop offset="1" stop-color="#4C6F7A" stop-opacity="0.25"/>
</linearGradient>
<linearGradient id="paint17_linear_2001_215" x1="225.307" y1="511.71" x2="241.693" y2="503.79" gradientUnits="userSpaceOnUse">
<stop stop-color="#8CCCE0"/>
<stop offset="1" stop-color="#4C6F7A" stop-opacity="0.25"/>
</linearGradient>
<linearGradient id="paint18_linear_2001_215" x1="284.5" y1="543" x2="299" y2="524" gradientUnits="userSpaceOnUse">
<stop stop-color="#8CCCE0"/>
<stop offset="1" stop-color="#4C6F7A" stop-opacity="0.25"/>
</linearGradient>
</defs>
</svg>
