<svg xmlns="http://www.w3.org/2000/svg" width="101" height="101" viewBox="0 0 101 101" fill="none">
  <g clip-path="url(#clip0_2001_858)">
    <g filter="url(#filter0_d_2001_858)">
      <path fill-rule="evenodd" clip-rule="evenodd" d="M50.26 5.26025C40.5429 5.26025 32.93 5.26025 26.9879 6.05984C20.911 6.87625 16.1135 8.58484 12.3471 12.3471C8.58063 16.1135 6.87625 20.911 6.05984 26.9921C5.26025 32.93 5.26025 40.5429 5.26025 50.26V50.7397C5.26025 60.4567 5.26025 68.0696 6.05984 74.0118C6.87625 80.0886 8.58484 84.8861 12.3471 88.6526C16.1135 92.419 20.911 94.1234 26.9921 94.9398C32.93 95.7394 40.5429 95.7394 50.26 95.7394H50.7397C60.4567 95.7394 68.0696 95.7394 74.0118 94.9398C80.0886 94.1234 84.8861 92.4148 88.6526 88.6526C92.419 84.8861 94.1234 80.0886 94.9398 74.0076C95.7394 68.0696 95.7394 60.4567 95.7394 50.7397V50.26C95.7394 40.5429 95.7394 32.93 94.9398 26.9879C94.1234 20.911 92.4148 16.1135 88.6526 12.3471C84.8861 8.58063 80.0886 6.87625 74.0076 6.05984C68.0696 5.26025 60.4567 5.26025 50.7397 5.26025H50.26ZM47.3436 11.5728C38.9522 11.5812 32.7112 11.6569 27.8338 12.3134C22.4513 13.0373 19.2067 14.4176 16.8079 16.8121C14.4134 19.2109 13.0373 22.4513 12.3134 27.8338C11.6611 32.7112 11.5812 38.9522 11.5728 47.3436H29.0963C27.5865 45.4549 26.5014 43.2631 25.9148 40.9175C23.6465 31.8569 31.8569 23.6465 40.9175 25.9148C43.2631 26.5014 45.4549 27.5865 47.3436 29.0963V11.5728ZM11.5728 53.6561C11.5812 62.0475 11.6569 68.2885 12.3134 73.1659C13.0373 78.5484 14.4176 81.793 16.8121 84.1917C19.2109 86.5863 22.4513 87.9624 27.8338 88.6862C32.7112 89.3385 38.9522 89.4185 47.3436 89.4269V59.4383C45.6831 62.7599 43.1302 65.5532 39.9711 67.5051C36.812 69.4571 33.1716 70.4905 29.4582 70.4894C28.6211 70.4894 27.8183 70.1569 27.2264 69.565C26.6345 68.9731 26.3019 68.1703 26.3019 67.3332C26.3019 66.4961 26.6345 65.6933 27.2264 65.1014C27.8183 64.5094 28.6211 64.1769 29.4582 64.1769C32.5373 64.1776 35.5265 63.1393 37.9422 61.23C40.3578 59.3207 42.0586 56.6521 42.7691 53.6561H11.5728ZM53.6561 89.4269C62.0475 89.4185 68.2885 89.3427 73.1659 88.6862C78.5484 87.9624 81.793 86.5821 84.1917 84.1875C86.5863 81.7888 87.9624 78.5484 88.6862 73.1659C89.3385 68.2885 89.4185 62.0475 89.4269 53.6561H58.2305C58.9411 56.6521 60.6418 59.3207 63.0575 61.23C65.4731 63.1393 68.4624 64.1776 71.5415 64.1769C72.3786 64.1769 73.1814 64.5094 73.7733 65.1014C74.3652 65.6933 74.6977 66.4961 74.6977 67.3332C74.6977 68.1703 74.3652 68.9731 73.7733 69.565C73.1814 70.1569 72.3786 70.4894 71.5415 70.4894C67.828 70.4905 64.1877 69.4571 61.0286 67.5051C57.8695 65.5532 55.3166 62.7599 53.6561 59.4383V89.4269ZM89.4269 47.3436H71.9034C73.4146 45.4553 74.5012 43.2635 75.0891 40.9175C77.3532 31.8569 69.1427 23.6465 60.0864 25.9148C57.7393 26.5009 55.546 27.586 53.6561 29.0963V11.5728C62.0475 11.5812 68.2885 11.6569 73.1659 12.3134C78.5484 13.0373 81.793 14.4176 84.1917 16.8121C86.5863 19.2109 87.9624 22.4513 88.6862 27.8338C89.3385 32.7112 89.4185 38.9522 89.4269 47.3436ZM53.6561 47.3436V42.2094C53.6633 39.8706 54.4496 37.6009 55.8907 35.7589C57.3319 33.9169 59.3457 32.6076 61.614 32.0379C62.6291 31.7844 63.6925 31.798 64.7007 32.0774C65.7089 32.3568 66.6276 32.8924 67.3674 33.6322C68.1072 34.372 68.6429 35.2907 68.9223 36.299C69.2017 37.3072 69.2153 38.3706 68.9618 39.3856C68.3924 41.6526 67.0844 43.6654 65.2441 45.1064C63.4038 46.5474 61.136 47.3345 58.7987 47.3436H53.6561ZM47.3436 42.1968C47.3336 39.8602 46.546 37.5934 45.1051 35.7539C43.6642 33.9145 41.6519 32.6071 39.3856 32.0379C38.3706 31.7844 37.3072 31.798 36.299 32.0774C35.2907 32.3568 34.372 32.8924 33.6322 33.6322C32.8924 34.372 32.3568 35.2907 32.0774 36.299C31.798 37.3072 31.7844 38.3706 32.0379 39.3856C32.6072 41.6526 33.9153 43.6654 35.7556 45.1064C37.5959 46.5474 39.8637 47.3345 42.201 47.3436H47.3436V42.1968Z" fill="#65DBFF"/>
      <path d="M27.7671 11.8179C22.3286 12.5493 18.9614 13.9559 16.4547 16.4583L16.4541 16.4589C13.9516 18.9658 12.5492 22.3289 11.8179 27.7671L11.8178 27.7675C11.1603 32.6838 11.0812 38.9594 11.0728 47.3431L11.0723 47.8436H11.5728H29.0963H30.136L29.4868 47.0314C28.0219 45.1988 26.9691 43.0721 26.3998 40.7961L26.3998 40.796C24.2232 32.1018 32.1018 24.2232 40.796 26.3998L40.7961 26.3998C43.0721 26.9691 45.1988 28.0219 47.0314 29.4868L47.8436 30.136V29.0963V11.5728V11.0723L47.3431 11.0728C38.9598 11.0812 32.6838 11.1561 27.7671 11.8179ZM27.7671 11.8179L27.8338 12.3134M27.7671 11.8179L27.8338 12.3134M27.8338 12.3134C32.6138 11.67 38.7035 11.5844 46.8436 11.5733L12.3134 27.8338C13.0373 22.4513 14.4134 19.2109 16.8079 16.8121C19.2067 14.4176 22.4513 13.0373 27.8338 12.3134ZM11.0723 53.1561H11.5728H42.7691H43.4016L43.2556 53.7715C42.5191 56.877 40.7562 59.6431 38.2522 61.6222C35.7483 63.6013 32.6498 64.6776 29.4582 64.6769L11.0723 53.1561ZM11.0723 53.1561L11.0728 53.6566M11.0723 53.1561L11.0728 53.6566M11.0728 53.6566C11.0812 62.0399 11.1561 68.3159 11.8179 73.2326C12.5493 78.6711 13.9559 82.0382 16.4583 84.545L16.4589 84.5456M11.0728 53.6566L16.4589 84.5456M16.4589 84.5456C18.9658 87.0481 22.3289 88.4504 27.7671 89.1818L27.7675 89.1818M16.4589 84.5456L27.7675 89.1818M27.7675 89.1818C32.6838 89.8393 38.9594 89.9185 47.3431 89.9269L47.8436 89.9274M27.7675 89.1818L47.8436 89.9274M47.8436 89.9274V89.4269M47.8436 89.9274V89.4269M47.8436 89.4269V59.4383L46.8964 59.2148M47.8436 89.4269L46.8964 59.2148M46.8964 59.2148C45.2774 62.4532 42.7883 65.1767 39.7083 67.0798C36.6282 68.9829 33.0789 69.9904 29.4583 69.9894H29.4582M46.8964 59.2148L29.4582 69.9894M29.4582 69.9894C28.7537 69.9894 28.0781 69.7096 27.5799 69.2114M29.4582 69.9894L27.5799 69.2114M27.5799 69.2114C27.0818 68.7133 26.8019 68.0376 26.8019 67.3332M27.5799 69.2114L26.8019 67.3332M26.8019 67.3332C26.8019 66.6287 27.0818 65.9531 27.5799 65.4549M26.8019 67.3332L27.5799 65.4549M27.5799 65.4549C28.078 64.9568 28.7536 64.6769 29.4581 64.6769L27.5799 65.4549ZM27.0545 6.55539L27.0546 6.55537C32.9558 5.7613 40.5294 5.76025 50.26 5.76025H50.7397C60.4702 5.76025 68.0439 5.7613 73.9409 6.55537L73.9411 6.55539C79.9667 7.36437 84.6409 9.04262 88.2988 12.7004C91.9529 16.3586 93.6353 21.0332 94.4443 27.0545C95.2384 32.9558 95.2394 40.5294 95.2394 50.26V50.7397C95.2394 60.4702 95.2384 68.0439 94.4443 73.9409L94.4443 73.9411C93.6353 79.9667 91.957 84.6409 88.2992 88.2988C84.641 91.9529 79.9665 93.6353 73.9452 94.4443C68.0439 95.2384 60.4702 95.2394 50.7397 95.2394H50.26C40.5294 95.2394 32.9558 95.2384 27.0588 94.4443L27.0586 94.4443C21.0329 93.6353 16.3586 91.957 12.7006 88.299C9.04668 84.6409 7.36432 79.9663 6.55539 73.9452L6.55537 73.9451C5.7613 68.0439 5.76025 60.4702 5.76025 50.7397V50.26C5.76025 40.5294 5.7613 32.9558 6.55537 27.0588L6.55539 27.0586C7.36437 21.033 9.04262 16.3588 12.7004 12.7008C16.3586 9.04674 21.0332 7.36433 27.0545 6.55539ZM53.1561 89.4269V89.9274L53.6566 89.9269C62.0399 89.9185 68.3159 89.8436 73.2326 89.1818C78.6711 88.4504 82.0382 87.0438 84.545 84.5414L84.5456 84.5408C87.0481 82.0339 88.4504 78.6708 89.1818 73.2326L89.1818 73.2322C89.8393 68.3159 89.9185 62.0403 89.9269 53.6566L89.9274 53.1561H89.4269H58.2305H57.5981L57.744 53.7715C58.4806 56.877 60.2435 59.6431 62.7474 61.6222C65.2514 63.6013 68.3499 64.6776 71.5416 64.6769C72.246 64.6769 72.9216 64.9568 73.4198 65.4549C73.9179 65.9531 74.1977 66.6287 74.1977 67.3332C74.1977 68.0376 73.9179 68.7133 73.4198 69.2114C72.9216 69.7096 72.246 69.9894 71.5415 69.9894H71.5414C67.9208 69.9904 64.3715 68.9829 61.2914 67.0798C58.2113 65.1767 55.7223 62.4532 54.1033 59.2148L53.1561 59.4383V89.4269ZM89.4269 47.8436H89.9274L89.9269 47.3431C89.9185 38.9594 89.8393 32.6838 89.1818 27.7675L89.1818 27.7671C88.4504 22.3289 87.0481 18.9658 84.5456 16.4589L84.545 16.4583C82.0382 13.9559 78.6711 12.5493 73.2326 11.8179C68.3159 11.1561 62.0399 11.0812 53.6566 11.0728L53.1561 11.0723V11.5728V29.0963V30.1358L53.9682 29.4869C55.802 28.0215 57.9301 26.9686 60.2076 26.3999L60.2079 26.3998C68.8977 24.2233 76.7767 32.1016 74.604 40.7962C74.0336 43.0725 72.9793 45.199 71.513 47.0312L70.8629 47.8436H71.9034H89.4269ZM53.1561 47.3436V47.8436H53.6561L58.7987 47.8436L58.8006 47.8436C61.249 47.8341 63.6246 47.0095 65.5523 45.5C67.4801 43.9906 68.8503 41.8821 69.4467 39.5074L69.4469 39.5068C69.7213 38.408 69.7066 37.2569 69.4041 36.1654C69.1017 35.074 68.5218 34.0795 67.721 33.2787C66.9202 32.4778 65.9256 31.898 64.8342 31.5955C63.7428 31.2931 62.5917 31.2784 61.4929 31.5528L61.4922 31.5529C59.1161 32.1497 57.0066 33.5213 55.4969 35.4508C53.9873 37.3804 53.1636 39.7579 53.1561 42.2079V42.2094V47.3436ZM47.8436 42.1968L47.8436 42.1947C47.8331 39.747 47.0081 37.3725 45.4987 35.4456C43.9893 33.5187 41.8814 32.1492 39.5074 31.5529L39.5068 31.5528C38.408 31.2784 37.2569 31.2931 36.1654 31.5955C35.074 31.898 34.0795 32.4778 33.2787 33.2787C32.4778 34.0795 31.898 35.074 31.5955 36.1654C31.2931 37.2569 31.2784 38.408 31.5528 39.5068L31.5529 39.5074C32.1494 41.8821 33.5196 43.9906 35.4473 45.5C37.3751 47.0095 39.7506 47.8341 42.1991 47.8436H42.201H47.3436H47.8436V47.3436L47.8436 42.1968Z" stroke="url(#paint0_radial_2001_858)"/>
    </g>
    <g style="mix-blend-mode:plus-lighter">
      <path d="M27.7676 11.8179C22.3291 12.5493 18.9619 13.9559 16.4552 16.4583L16.4545 16.4589C13.9521 18.9658 12.5497 22.3289 11.8184 27.7671L11.8183 27.7675C11.1608 32.6838 11.0817 38.9594 11.0732 47.3431L11.0727 47.8436H11.5732H29.0967H30.1365L29.4873 47.0314C28.0224 45.1988 26.9695 43.0721 26.4003 40.7961L26.4003 40.796C24.2237 32.1018 32.1023 24.2232 40.7965 26.3998L40.7966 26.3998C43.0726 26.9691 45.1993 28.0219 47.0319 29.4868L47.8441 30.136V29.0963V11.5728V11.0723L47.3436 11.0728C38.9603 11.0812 32.6843 11.1561 27.7676 11.8179ZM27.7676 11.8179L27.8342 12.3134M27.7676 11.8179L27.8342 12.3134M27.8342 12.3134C32.6143 11.67 38.704 11.5844 46.8441 11.5733L12.3139 27.8338C13.0377 22.4513 14.4139 19.2109 16.8084 16.8121C19.2072 14.4176 22.4518 13.0373 27.8342 12.3134ZM11.0727 53.1561H11.5732H42.7696H43.4021L43.2561 53.7715C42.5196 56.877 40.7567 59.6431 38.2527 61.6222C35.7488 63.6013 32.6503 64.6776 29.4587 64.6769L11.0727 53.1561ZM11.0727 53.1561L11.0732 53.6566M11.0727 53.1561L11.0732 53.6566M11.0732 53.6566C11.0817 62.0399 11.1566 68.3159 11.8184 73.2326C12.5497 78.6711 13.9564 82.0382 16.4588 84.545L16.4594 84.5456M11.0732 53.6566L16.4594 84.5456M16.4594 84.5456C18.9662 87.0481 22.3293 88.4504 27.7676 89.1818L27.768 89.1818M16.4594 84.5456L27.768 89.1818M27.768 89.1818C32.6843 89.8393 38.9599 89.9185 47.3436 89.9269L47.8441 89.9274M27.768 89.1818L47.8441 89.9274M47.8441 89.9274V89.4269M47.8441 89.9274V89.4269M47.8441 89.4269V59.4383L46.8968 59.2148M47.8441 89.4269L46.8968 59.2148M46.8968 59.2148C45.2779 62.4532 42.7888 65.1767 39.7088 67.0798C36.6287 68.9829 33.0794 69.9904 29.4588 69.9894H29.4587M46.8968 59.2148L29.4587 69.9894M29.4587 69.9894C28.7542 69.9894 28.0785 69.7096 27.5804 69.2114M29.4587 69.9894L27.5804 69.2114M27.5804 69.2114C27.0823 68.7133 26.8024 68.0376 26.8024 67.3332M27.5804 69.2114L26.8024 67.3332M26.8024 67.3332C26.8024 66.6287 27.0823 65.9531 27.5804 65.4549M26.8024 67.3332L27.5804 65.4549M27.5804 65.4549C28.0785 64.9568 28.7541 64.6769 29.4585 64.6769L27.5804 65.4549ZM27.0549 6.55539L27.055 6.55537C32.9563 5.7613 40.5299 5.76025 50.2604 5.76025H50.7402C60.4707 5.76025 68.0444 5.7613 73.9413 6.55537L73.9415 6.55539C79.9672 7.36437 84.6414 9.04262 88.2993 12.7004C91.9534 16.3586 93.6358 21.0332 94.4448 27.0545C95.2389 32.9558 95.2399 40.5294 95.2399 50.26V50.7397C95.2399 60.4702 95.2389 68.0439 94.4448 73.9409L94.4448 73.9411C93.6358 79.9667 91.9575 84.6409 88.2997 88.2988C84.6415 91.9529 79.9669 93.6353 73.9457 94.4443C68.0444 95.2384 60.4707 95.2394 50.7402 95.2394H50.2604C40.5299 95.2394 32.9563 95.2384 27.0593 94.4443L27.0591 94.4443C21.0334 93.6353 16.3591 91.957 12.7011 88.299C9.04717 84.6409 7.36481 79.9663 6.55587 73.9452L6.55586 73.9451C5.76178 68.0439 5.76074 60.4702 5.76074 50.7397V50.26C5.76074 40.5294 5.76179 32.9558 6.55585 27.0588L6.55588 27.0586C7.36486 21.033 9.04311 16.3588 12.7009 12.7008C16.3591 9.04674 21.0337 7.36433 27.0549 6.55539ZM53.1566 89.4269V89.9274L53.6571 89.9269C62.0404 89.9185 68.3164 89.8436 73.2331 89.1818C78.6715 88.4504 82.0387 87.0438 84.5455 84.5414L84.5461 84.5408C87.0486 82.0339 88.4509 78.6708 89.1823 73.2326L89.1823 73.2322C89.8398 68.3159 89.919 62.0403 89.9274 53.6566L89.9279 53.1561H89.4274H58.231H57.5986L57.7445 53.7715C58.4811 56.877 60.244 59.6431 62.7479 61.6222C65.2519 63.6013 68.3504 64.6776 71.5421 64.6769C72.2465 64.6769 72.9221 64.9568 73.4202 65.4549C73.9184 65.9531 74.1982 66.6287 74.1982 67.3332C74.1982 68.0376 73.9184 68.7133 73.4202 69.2114C72.9221 69.7096 72.2465 69.9894 71.542 69.9894H71.5418C67.9213 69.9904 64.372 68.9829 61.2919 67.0798C58.2118 65.1767 55.7228 62.4532 54.1038 59.2148L53.1566 59.4383V89.4269ZM89.4274 47.8436H89.9279L89.9274 47.3431C89.919 38.9594 89.8398 32.6838 89.1823 27.7675L89.1823 27.7671C88.4509 22.3289 87.0486 18.9658 84.5461 16.4589L84.5455 16.4583C82.0387 13.9559 78.6715 12.5493 73.2331 11.8179C68.3164 11.1561 62.0404 11.0812 53.6571 11.0728L53.1566 11.0723V11.5728V29.0963V30.1358L53.9687 29.4869C55.8025 28.0215 57.9306 26.9686 60.208 26.3999L60.2084 26.3998C68.8982 24.2233 76.7772 32.1016 74.6045 40.7962C74.034 43.0725 72.9798 45.199 71.5135 47.0312L70.8633 47.8436H71.9039H89.4274ZM53.1566 47.3436V47.8436H53.6566L58.7992 47.8436L58.8011 47.8436C61.2495 47.8341 63.625 47.0095 65.5528 45.5C67.4806 43.9906 68.8508 41.8821 69.4472 39.5074L69.4474 39.5068C69.7218 38.408 69.7071 37.2569 69.4046 36.1654C69.1022 35.074 68.5223 34.0795 67.7215 33.2787C66.9206 32.4778 65.9261 31.898 64.8347 31.5955C63.7433 31.2931 62.5922 31.2784 61.4934 31.5528L61.4927 31.5529C59.1166 32.1497 57.007 33.5213 55.4974 35.4508C53.9878 37.3804 53.1641 39.7579 53.1566 42.2079V42.2094V47.3436ZM47.8441 42.1968L47.8441 42.1947C47.8336 39.747 47.0086 37.3725 45.4992 35.4456C43.9898 33.5187 41.8819 32.1492 39.5079 31.5529L39.5073 31.5528C38.4085 31.2784 37.2573 31.2931 36.1659 31.5955C35.0745 31.898 34.08 32.4778 33.2792 33.2787C32.4783 34.0795 31.8985 35.074 31.596 36.1654C31.2936 37.2569 31.2789 38.408 31.5533 39.5068L31.5534 39.5074C32.1498 41.8821 33.5201 43.9906 35.4478 45.5C37.3756 47.0095 39.7511 47.8341 42.1996 47.8436H42.2015H47.3441H47.8441V47.3436L47.8441 42.1968Z" fill="url(#paint1_linear_2001_858)"/>
      <path d="M27.7676 11.8179C22.3291 12.5493 18.9619 13.9559 16.4552 16.4583L16.4545 16.4589C13.9521 18.9658 12.5497 22.3289 11.8184 27.7671L11.8183 27.7675C11.1608 32.6838 11.0817 38.9594 11.0732 47.3431L11.0727 47.8436H11.5732H29.0967H30.1365L29.4873 47.0314C28.0224 45.1988 26.9695 43.0721 26.4003 40.7961L26.4003 40.796C24.2237 32.1018 32.1023 24.2232 40.7965 26.3998L40.7966 26.3998C43.0726 26.9691 45.1993 28.0219 47.0319 29.4868L47.8441 30.136V29.0963V11.5728V11.0723L47.3436 11.0728C38.9603 11.0812 32.6843 11.1561 27.7676 11.8179ZM27.7676 11.8179L27.8342 12.3134M27.7676 11.8179L27.8342 12.3134M27.8342 12.3134C32.6143 11.67 38.704 11.5844 46.8441 11.5733L12.3139 27.8338C13.0377 22.4513 14.4139 19.2109 16.8084 16.8121C19.2072 14.4176 22.4518 13.0373 27.8342 12.3134ZM11.0727 53.1561H11.5732H42.7696H43.4021L43.2561 53.7715C42.5196 56.877 40.7567 59.6431 38.2527 61.6222C35.7488 63.6013 32.6503 64.6776 29.4587 64.6769L11.0727 53.1561ZM11.0727 53.1561L11.0732 53.6566M11.0727 53.1561L11.0732 53.6566M11.0732 53.6566C11.0817 62.0399 11.1566 68.3159 11.8184 73.2326C12.5497 78.6711 13.9564 82.0382 16.4588 84.545L16.4594 84.5456M11.0732 53.6566L16.4594 84.5456M16.4594 84.5456C18.9662 87.0481 22.3293 88.4504 27.7676 89.1818L27.768 89.1818M16.4594 84.5456L27.768 89.1818M27.768 89.1818C32.6843 89.8393 38.9599 89.9185 47.3436 89.9269L47.8441 89.9274M27.768 89.1818L47.8441 89.9274M47.8441 89.9274V89.4269M47.8441 89.9274V89.4269M47.8441 89.4269V59.4383L46.8968 59.2148M47.8441 89.4269L46.8968 59.2148M46.8968 59.2148C45.2779 62.4532 42.7888 65.1767 39.7088 67.0798C36.6287 68.9829 33.0794 69.9904 29.4588 69.9894H29.4587M46.8968 59.2148L29.4587 69.9894M29.4587 69.9894C28.7542 69.9894 28.0785 69.7096 27.5804 69.2114M29.4587 69.9894L27.5804 69.2114M27.5804 69.2114C27.0823 68.7133 26.8024 68.0376 26.8024 67.3332M27.5804 69.2114L26.8024 67.3332M26.8024 67.3332C26.8024 66.6287 27.0823 65.9531 27.5804 65.4549M26.8024 67.3332L27.5804 65.4549M27.5804 65.4549C28.0785 64.9568 28.7541 64.6769 29.4585 64.6769L27.5804 65.4549ZM27.0549 6.55539L27.055 6.55537C32.9563 5.7613 40.5299 5.76025 50.2604 5.76025H50.7402C60.4707 5.76025 68.0444 5.7613 73.9413 6.55537L73.9415 6.55539C79.9672 7.36437 84.6414 9.04262 88.2993 12.7004C91.9534 16.3586 93.6358 21.0332 94.4448 27.0545C95.2389 32.9558 95.2399 40.5294 95.2399 50.26V50.7397C95.2399 60.4702 95.2389 68.0439 94.4448 73.9409L94.4448 73.9411C93.6358 79.9667 91.9575 84.6409 88.2997 88.2988C84.6415 91.9529 79.9669 93.6353 73.9457 94.4443C68.0444 95.2384 60.4707 95.2394 50.7402 95.2394H50.2604C40.5299 95.2394 32.9563 95.2384 27.0593 94.4443L27.0591 94.4443C21.0334 93.6353 16.3591 91.957 12.7011 88.299C9.04717 84.6409 7.36481 79.9663 6.55587 73.9452L6.55586 73.9451C5.76178 68.0439 5.76074 60.4702 5.76074 50.7397V50.26C5.76074 40.5294 5.76179 32.9558 6.55585 27.0588L6.55588 27.0586C7.36486 21.033 9.04311 16.3588 12.7009 12.7008C16.3591 9.04674 21.0337 7.36433 27.0549 6.55539ZM53.1566 89.4269V89.9274L53.6571 89.9269C62.0404 89.9185 68.3164 89.8436 73.2331 89.1818C78.6715 88.4504 82.0387 87.0438 84.5455 84.5414L84.5461 84.5408C87.0486 82.0339 88.4509 78.6708 89.1823 73.2326L89.1823 73.2322C89.8398 68.3159 89.919 62.0403 89.9274 53.6566L89.9279 53.1561H89.4274H58.231H57.5986L57.7445 53.7715C58.4811 56.877 60.244 59.6431 62.7479 61.6222C65.2519 63.6013 68.3504 64.6776 71.5421 64.6769C72.2465 64.6769 72.9221 64.9568 73.4202 65.4549C73.9184 65.9531 74.1982 66.6287 74.1982 67.3332C74.1982 68.0376 73.9184 68.7133 73.4202 69.2114C72.9221 69.7096 72.2465 69.9894 71.542 69.9894H71.5418C67.9213 69.9904 64.372 68.9829 61.2919 67.0798C58.2118 65.1767 55.7228 62.4532 54.1038 59.2148L53.1566 59.4383V89.4269ZM89.4274 47.8436H89.9279L89.9274 47.3431C89.919 38.9594 89.8398 32.6838 89.1823 27.7675L89.1823 27.7671C88.4509 22.3289 87.0486 18.9658 84.5461 16.4589L84.5455 16.4583C82.0387 13.9559 78.6715 12.5493 73.2331 11.8179C68.3164 11.1561 62.0404 11.0812 53.6571 11.0728L53.1566 11.0723V11.5728V29.0963V30.1358L53.9687 29.4869C55.8025 28.0215 57.9306 26.9686 60.208 26.3999L60.2084 26.3998C68.8982 24.2233 76.7772 32.1016 74.6045 40.7962C74.034 43.0725 72.9798 45.199 71.5135 47.0312L70.8633 47.8436H71.9039H89.4274ZM53.1566 47.3436V47.8436H53.6566L58.7992 47.8436L58.8011 47.8436C61.2495 47.8341 63.625 47.0095 65.5528 45.5C67.4806 43.9906 68.8508 41.8821 69.4472 39.5074L69.4474 39.5068C69.7218 38.408 69.7071 37.2569 69.4046 36.1654C69.1022 35.074 68.5223 34.0795 67.7215 33.2787C66.9206 32.4778 65.9261 31.898 64.8347 31.5955C63.7433 31.2931 62.5922 31.2784 61.4934 31.5528L61.4927 31.5529C59.1166 32.1497 57.007 33.5213 55.4974 35.4508C53.9878 37.3804 53.1641 39.7579 53.1566 42.2079V42.2094V47.3436ZM47.8441 42.1968L47.8441 42.1947C47.8336 39.747 47.0086 37.3725 45.4992 35.4456C43.9898 33.5187 41.8819 32.1492 39.5079 31.5529L39.5073 31.5528C38.4085 31.2784 37.2573 31.2931 36.1659 31.5955C35.0745 31.898 34.08 32.4778 33.2792 33.2787C32.4783 34.0795 31.8985 35.074 31.596 36.1654C31.2936 37.2569 31.2789 38.408 31.5533 39.5068L31.5534 39.5074C32.1498 41.8821 33.5201 43.9906 35.4478 45.5C37.3756 47.0095 39.7511 47.8341 42.1996 47.8436H42.2015H47.3441H47.8441V47.3436L47.8441 42.1968Z" stroke="url(#paint2_radial_2001_858)"/>
    </g>
  </g>
  <defs>
    <filter id="filter0_d_2001_858" x="-1.23975" y="-1.23975" width="103.479" height="103.479" filterUnits="userSpaceOnUse" color-interpolation-filters="sRGB">
      <feFlood flood-opacity="0" result="BackgroundImageFix"/>
      <feColorMatrix in="SourceAlpha" type="matrix" values="0 0 0 0 0 0 0 0 0 0 0 0 0 0 0 0 0 0 127 0" result="hardAlpha"/>
      <feOffset/>
      <feGaussianBlur stdDeviation="3.25"/>
      <feComposite in2="hardAlpha" operator="out"/>
      <feColorMatrix type="matrix" values="0 0 0 0 0.396078 0 0 0 0 0.858824 0 0 0 0 1 0 0 0 1 0"/>
      <feBlend mode="hard-light" in2="BackgroundImageFix" result="effect1_dropShadow_2001_858"/>
      <feBlend mode="normal" in="SourceGraphic" in2="effect1_dropShadow_2001_858" result="shape"/>
    </filter>
    <radialGradient id="paint0_radial_2001_858" cx="0" cy="0" r="1" gradientUnits="userSpaceOnUse" gradientTransform="translate(50.4998 50.4998) rotate(90) scale(45.2396 65.392)">
      <stop stop-color="#AAEBFF"/>
      <stop offset="1" stop-color="#AAEBFF" stop-opacity="0.2"/>
    </radialGradient>
    <linearGradient id="paint1_linear_2001_858" x1="14.0002" y1="13.5" x2="50.5003" y2="95.7394" gradientUnits="userSpaceOnUse">
      <stop stop-color="#65DBFF" stop-opacity="0.8"/>
      <stop offset="1" stop-color="#3D8399" stop-opacity="0"/>
    </linearGradient>
    <radialGradient id="paint2_radial_2001_858" cx="0" cy="0" r="1" gradientUnits="userSpaceOnUse" gradientTransform="translate(50.5003 50.4998) rotate(90) scale(45.2396 65.392)">
      <stop stop-color="#AAEBFF"/>
      <stop offset="1" stop-color="#AAEBFF" stop-opacity="0.2"/>
    </radialGradient>
    <clipPath id="clip0_2001_858">
      <rect width="101" height="101" fill="white"/>
    </clipPath>
  </defs>
</svg>