<svg xmlns="http://www.w3.org/2000/svg" width="133" height="100" viewBox="0 0 133 100" fill="none">
  <path d="M261.975 -9.63545L289.279 61.6666C295.599 78.1711 287.343 96.6739 270.838 102.994L62.5844 182.74C46.0799 189.06 27.5771 180.804 21.2571 164.299L2.34903 114.921C-0.313634 107.968 -0.50639 100.291 2.08767 93.3112C5.56499 83.9554 9.99083 73.1123 12.9642 69.0346C18.3297 61.6763 25.2759 72.6929 44.2215 86.5519C56.2796 95.3727 63.5211 89.1103 66.924 82.2751C68.529 79.0511 70.0384 75.7214 72.4044 73.0061C79.7565 64.5684 94.8719 68.8474 103.361 61.5544C104.749 60.3618 105.701 58.4125 105.959 55.4483C106.569 48.4405 110.351 42.7182 114.489 38.593C119.569 33.5298 127.185 32.861 134.192 34.391C143.53 36.4299 155.259 39.0582 163.123 41.0214C177.51 44.6129 177.807 34.4884 183.766 20.5575C189.725 6.62663 205.111 14.7501 212.661 14.5895C220.21 14.4289 222.41 0.299171 222.876 -2.97333C223.341 -6.24584 233.457 -6.11517 237.65 -8.63066C240.285 -10.2117 239.761 -15.8367 241.94 -18.9106C243.145 -20.611 245.51 -20.6327 247.586 -20.4567C254.061 -19.908 259.652 -15.7038 261.975 -9.63545Z" fill="url(#paint0_linear_2001_520)"/>
  <defs>
    <linearGradient id="paint0_linear_2001_520" x1="122.011" y1="26.1327" x2="144" y2="115" gradientUnits="userSpaceOnUse">
      <stop stop-color="#8CCCE0"/>
      <stop offset="1" stop-color="#1A8EB2" stop-opacity="0"/>
    </linearGradient>
  </defs>
</svg>