<svg xmlns="http://www.w3.org/2000/svg" width="141" height="141" viewBox="0 0 141 141" fill="none">
  <g clip-path="url(#clip0_2001_580)">
    <g filter="url(#filter0_d_2001_580)">
      <path d="M70.5 5.875L17.625 29.375V64.625C17.625 97.2313 40.185 127.723 70.5 135.125C100.815 127.723 123.375 97.2313 123.375 64.625V29.375L70.5 5.875ZM70.5 41.125C78.725 41.125 86.95 47.5875 86.95 55.8125V64.625C90.475 64.625 94 68.15 94 72.2625V92.825C94 96.35 90.475 99.875 86.3625 99.875H54.05C50.525 99.875 47 96.35 47 92.2375V71.675C47 68.15 50.525 64.625 54.05 64.625V55.8125C54.05 47.5875 62.275 41.125 70.5 41.125ZM70.5 48.175C65.8 48.175 61.6875 51.1125 61.6875 55.8125V64.625H79.3125V55.8125C79.3125 51.1125 75.2 48.175 70.5 48.175Z" fill="#65DBFF"/>
      <path d="M18.5062 64.625V29.9477L70.5 6.83937L122.494 29.9477V64.625C122.494 96.7864 100.281 126.831 70.5 134.217C40.7191 126.831 18.5062 96.7864 18.5062 64.625ZM87.8313 55.8125C87.8313 51.3923 85.6207 47.4905 82.3829 44.7153C79.1481 41.9426 74.8348 40.2438 70.5 40.2438C66.1652 40.2438 61.8519 41.9426 58.6171 44.7153C55.3793 47.4905 53.1688 51.3923 53.1688 55.8125V63.8055C51.4417 64.0459 49.8169 64.9681 48.58 66.205C47.1344 67.6505 46.1187 69.6259 46.1187 71.675V92.2375C46.1187 94.5463 47.1061 96.6663 48.5634 98.2045C50.0153 99.7371 51.9973 100.756 54.05 100.756H86.3625C88.6713 100.756 90.7913 99.7689 92.3295 98.3116C93.8621 96.8597 94.8812 94.8777 94.8812 92.825V72.2625C94.8812 69.9537 93.8939 67.8337 92.4366 66.2955C91.1938 64.9836 89.5627 64.048 87.8313 63.8057V55.8125ZM62.5687 55.8125C62.5687 51.7563 66.1131 49.0562 70.5 49.0562C74.8869 49.0562 78.4313 51.7563 78.4313 55.8125V63.7438H62.5687V55.8125Z" stroke="url(#paint0_radial_2001_580)" stroke-width="1.7625"/>
      <path d="M18.5062 64.625V29.9477L70.5 6.83937L122.494 29.9477V64.625C122.494 96.7864 100.281 126.831 70.5 134.217C40.7191 126.831 18.5062 96.7864 18.5062 64.625ZM87.8313 55.8125C87.8313 51.3923 85.6207 47.4905 82.3829 44.7153C79.1481 41.9426 74.8348 40.2438 70.5 40.2438C66.1652 40.2438 61.8519 41.9426 58.6171 44.7153C55.3793 47.4905 53.1688 51.3923 53.1688 55.8125V63.8055C51.4417 64.0459 49.8169 64.9681 48.58 66.205C47.1344 67.6505 46.1187 69.6259 46.1187 71.675V92.2375C46.1187 94.5463 47.1061 96.6663 48.5634 98.2045C50.0153 99.7371 51.9973 100.756 54.05 100.756H86.3625C88.6713 100.756 90.7913 99.7689 92.3295 98.3116C93.8621 96.8597 94.8812 94.8777 94.8812 92.825V72.2625C94.8812 69.9537 93.8939 67.8337 92.4366 66.2955C91.1938 64.9836 89.5627 64.048 87.8313 63.8057V55.8125ZM62.5687 55.8125C62.5687 51.7563 66.1131 49.0562 70.5 49.0562C74.8869 49.0562 78.4313 51.7563 78.4313 55.8125V63.7438H62.5687V55.8125Z" stroke="url(#paint1_radial_2001_580)" stroke-width="1.7625"/>
    </g>
  </g>
  <defs>
    <filter id="filter0_d_2001_580" x="9.9875" y="-1.7625" width="121.025" height="144.525" filterUnits="userSpaceOnUse" color-interpolation-filters="sRGB">
      <feFlood flood-opacity="0" result="BackgroundImageFix"/>
      <feColorMatrix in="SourceAlpha" type="matrix" values="0 0 0 0 0 0 0 0 0 0 0 0 0 0 0 0 0 0 127 0" result="hardAlpha"/>
      <feOffset/>
      <feGaussianBlur stdDeviation="3.81875"/>
      <feComposite in2="hardAlpha" operator="out"/>
      <feColorMatrix type="matrix" values="0 0 0 0 0.396078 0 0 0 0 0.858824 0 0 0 0 1 0 0 0 1 0"/>
      <feBlend mode="normal" in2="BackgroundImageFix" result="effect1_dropShadow_2001_580"/>
      <feBlend mode="normal" in="SourceGraphic" in2="effect1_dropShadow_2001_580" result="shape"/>
    </filter>
    <radialGradient id="paint0_radial_2001_580" cx="0" cy="0" r="1" gradientUnits="userSpaceOnUse" gradientTransform="translate(24.675 22.325) rotate(54.6518) scale(123.889 101.363)">
      <stop stop-color="#B8EEFF"/>
      <stop offset="0.543012" stop-color="#B8EEFF" stop-opacity="0"/>
      <stop offset="1" stop-color="#B8EEFF" stop-opacity="0"/>
    </radialGradient>
    <radialGradient id="paint1_radial_2001_580" cx="0" cy="0" r="1" gradientUnits="userSpaceOnUse" gradientTransform="translate(116.912 31.1375) rotate(115.858) scale(106.417 87.0684)">
      <stop stop-color="#D6F5FF"/>
      <stop offset="0.502684" stop-color="#B8EEFF" stop-opacity="0"/>
      <stop offset="1" stop-color="#B8EEFF" stop-opacity="0"/>
    </radialGradient>
    <clipPath id="clip0_2001_580">
      <rect width="141" height="141" fill="white"/>
    </clipPath>
  </defs>
</svg>