<svg xmlns="http://www.w3.org/2000/svg" width="149" height="38" viewBox="0 0 149 38" fill="none">
  <path d="M8.54178 7.20477C6.57228 7.97725 4.60279 8.74973 2.63186 9.52221C2.62613 9.52392 2.62184 9.52563 2.61611 9.52904C2.41859 11.8824 2.2225 14.234 2.02497 16.5873C1.82745 18.9407 1.63136 21.294 1.43384 23.6456C3.40906 22.8714 5.38429 22.0972 7.35951 21.323C7.55703 18.9697 7.75312 16.6164 7.95064 14.2648C13.8806 11.9405 19.812 9.6145 25.742 7.29022C25.9395 4.93689 26.1356 2.58526 26.3331 0.231934C20.4031 2.55621 14.4717 4.8822 8.54178 7.20647V7.20477Z" fill="white"/>
  <path d="M24.5529 21.4084C24.7504 19.055 24.9465 16.7017 25.144 14.3501C23.1688 15.1243 21.1935 15.8985 19.2183 16.6727C19.0208 19.026 18.8247 21.3793 18.6272 23.7309C18.6243 23.7651 18.6229 23.7822 18.62 23.8147C12.6972 26.1373 6.77441 28.4581 0.850168 30.7807C0.652645 33.134 0.456556 35.4856 0.259033 37.839C8.15993 34.7422 16.0594 31.6455 23.9603 28.547C24.1578 26.1937 24.3539 23.842 24.5514 21.4887L24.5443 21.4921C24.5471 21.4579 24.5486 21.4408 24.5514 21.4084H24.5529Z" fill="white"/>
  <path d="M13.543 22.1293C14.9716 21.9605 16.0151 20.441 15.8738 18.7352C15.7325 17.0295 14.4598 15.7835 13.0312 15.9523C11.6027 16.121 10.5592 17.6406 10.7005 19.3463C10.8418 21.0521 12.1145 22.298 13.543 22.1293Z" fill="white"/>
  <path d="M33.2515 25.1644C32.3762 24.2413 31.9831 22.9208 32.0748 21.1998L34.685 21.1592C34.685 21.835 34.7741 22.3545 34.9523 22.7174C35.1305 23.0835 35.4135 23.3401 35.7988 23.4903C36.184 23.6405 36.7239 23.7188 37.4157 23.7188C38.3251 23.7188 39.0038 23.5811 39.4467 23.3057C39.8896 23.0304 40.1123 22.6173 40.1123 22.0666C40.1123 21.7099 40.0626 21.4408 39.9656 21.2624C39.8686 21.0841 39.6642 20.937 39.3524 20.8181C39.0405 20.7023 38.5452 20.5865 37.8665 20.477L36.3281 20.2079C34.9209 19.9732 33.8569 19.5226 33.131 18.8561C32.405 18.1896 32.0408 17.1883 32.0408 15.8522C32.0408 14.5161 32.4915 13.4584 33.3904 12.7137C34.2893 11.969 35.5393 11.5841 37.1432 11.5591C38.9173 11.5716 40.2329 12.0191 41.0846 12.9015C41.9363 13.7839 42.3294 15.048 42.2613 16.7002L39.6852 16.7221C39.6852 15.8272 39.4808 15.2076 39.072 14.8634C38.6631 14.5192 38.0263 14.3471 37.1615 14.3471C35.4083 14.3471 34.533 14.8352 34.533 15.8115C34.533 16.1432 34.5828 16.3935 34.6798 16.5656C34.7767 16.7377 34.9706 16.8785 35.2589 16.9881C35.5472 17.0976 36.0032 17.2071 36.6243 17.3197L38.2491 17.6076C39.7717 17.8705 40.8907 18.3461 41.6114 19.0408C42.332 19.7354 42.6911 20.7492 42.6911 22.0854C42.6911 23.4215 42.2298 24.548 41.3074 25.3459C40.3849 26.1438 39.0955 26.5443 37.4341 26.5443H37.4157C35.5131 26.5443 34.1242 26.0844 33.2489 25.1613L33.2515 25.1644Z" fill="white"/>
  <path d="M48.4298 14.7195H44.1084V11.8721H55.2592V14.7195H50.9194V26.3222H48.4298V14.7195Z" fill="white"/>
  <path d="M57.332 11.8721H66.4597V14.7195H59.8216V17.4043H66.1846V20.233H59.8216V23.4935H66.4597V26.3222H57.332V11.8721Z" fill="white"/>
  <path d="M74.6202 14.3691C73.3413 14.3691 72.3848 14.7602 71.7506 15.5456C71.1164 16.3311 70.7993 17.5076 70.7993 19.0753C70.7993 20.6429 71.1138 21.7945 71.7427 22.5642C72.3717 23.334 73.3308 23.7189 74.6202 23.7189C75.4274 23.7189 76.093 23.5687 76.6171 23.2651C77.1413 22.9616 77.5658 22.5079 77.8881 21.904V20.2737H73.5143V17.4262L80.6555 17.4888V26.3254H77.8908V25.4774C77.5213 25.8341 77.0495 26.1032 76.473 26.2816C75.8965 26.4599 75.2806 26.5507 74.6228 26.5507C73.3675 26.5507 72.259 26.2503 71.3025 25.6526C70.3459 25.055 69.6017 24.1945 69.0723 23.0711C68.5429 21.9509 68.2756 20.6179 68.2756 19.0784C68.2756 17.5389 68.5403 16.1996 69.0723 15.0638C69.6017 13.9279 70.3486 13.0611 71.3103 12.4635C72.2721 11.8658 73.3754 11.5654 74.6202 11.5654C76.1297 11.5654 77.4217 11.991 78.4935 12.8452C79.5653 13.6995 80.2965 14.8948 80.6896 16.4374L78.0454 16.4593C77.4793 15.07 76.3393 14.3754 74.6228 14.3754L74.6202 14.3691Z" fill="white"/>
  <path d="M81.5024 11.8721H84.2856L88.0383 21.904L91.8068 11.8721H94.5558L89.042 26.3222H87.053L81.5024 11.8721Z" fill="white"/>
  <path d="M96.3196 11.8721H98.8092V26.3222H96.3196V11.8721Z" fill="white"/>
  <path d="M102.111 25.1644C101.236 24.2413 100.843 22.9208 100.934 21.1998L103.545 21.1592C103.545 21.835 103.634 22.3545 103.812 22.7174C103.99 23.0835 104.273 23.3401 104.658 23.4903C105.044 23.6405 105.583 23.7188 106.275 23.7188C107.185 23.7188 107.863 23.5811 108.306 23.3057C108.749 23.0304 108.972 22.6173 108.972 22.0666C108.972 21.7099 108.922 21.4408 108.825 21.2624C108.728 21.0841 108.524 20.937 108.212 20.8181C107.9 20.7023 107.405 20.5865 106.726 20.477L105.188 20.2079C103.78 19.9732 102.716 19.5226 101.991 18.8561C101.265 18.1896 100.9 17.1883 100.9 15.8522C100.9 14.5161 101.349 13.4584 102.25 12.7137C103.149 11.969 104.399 11.5841 106.003 11.5591C107.777 11.5716 109.093 12.0191 109.944 12.9015C110.796 13.7839 111.189 15.048 111.121 16.7002L108.545 16.7221C108.545 15.8272 108.34 15.2076 107.932 14.8634C107.523 14.5192 106.886 14.3471 106.021 14.3471C104.268 14.3471 103.393 14.8352 103.393 15.8115C103.393 16.1432 103.442 16.3935 103.539 16.5656C103.636 16.7377 103.83 16.8785 104.119 16.9881C104.407 17.0976 104.863 17.2071 105.484 17.3197L107.109 17.6076C108.631 17.8705 109.75 18.3461 110.471 19.0408C111.192 19.7354 111.551 20.7492 111.551 22.0854C111.551 23.4215 111.089 24.548 110.167 25.3459C109.245 26.1438 107.955 26.5443 106.294 26.5443H106.275C104.373 26.5443 102.984 26.0844 102.109 25.1613L102.111 25.1644Z" fill="white"/>
  <path d="M113.624 11.8721H116.113V26.3222H113.624V11.8721Z" fill="white"/>
  <path d="M121.213 25.6492C120.257 25.0515 119.512 24.191 118.983 23.0677C118.454 21.9475 118.186 20.6145 118.186 19.075C118.186 17.5355 118.451 16.1962 118.983 15.0603C119.512 13.9245 120.259 13.0577 121.221 12.4601C122.183 11.8624 123.286 11.562 124.531 11.562C125.776 11.562 126.913 11.8624 127.877 12.4601C128.839 13.0577 129.586 13.9213 130.115 15.051C130.645 16.1806 130.909 17.5073 130.909 19.0343C130.909 20.5613 130.647 21.9318 130.123 23.0583C129.599 24.1879 128.855 25.0515 127.893 25.6492C126.931 26.2469 125.81 26.5473 124.531 26.5473C123.252 26.5473 122.167 26.2469 121.21 25.6492H121.213ZM121.653 22.5639C122.282 23.3337 123.241 23.7186 124.531 23.7186C125.82 23.7186 126.798 23.3305 127.427 22.5514C128.056 21.7723 128.37 20.6145 128.37 19.0718C128.37 15.9334 127.091 14.3657 124.531 14.3657C123.252 14.3657 122.295 14.7568 121.661 15.5422C121.027 16.3276 120.71 17.5042 120.71 19.0718C120.71 20.6395 121.024 21.791 121.653 22.5608V22.5639Z" fill="white"/>
  <path d="M132.988 11.8721H135.098L141.235 21.2218V11.8721H143.672V26.3222H141.597L135.441 17.0132V26.3222H132.985V11.8721H132.988Z" fill="white"/>
  <g opacity="0.99">
    <path d="M146.573 15.2449C146.337 15.0697 146.149 14.8319 146.01 14.5315C145.871 14.2342 145.803 13.9057 145.803 13.5489C145.803 13.1922 145.871 12.8605 146.007 12.5602C146.143 12.2629 146.329 12.0251 146.568 11.853C146.804 11.6809 147.068 11.5933 147.357 11.5933C147.645 11.5933 147.91 11.6809 148.148 11.853C148.387 12.0251 148.575 12.2598 148.714 12.5602C148.853 12.8574 148.921 13.1891 148.921 13.5489C148.921 13.9088 148.853 14.2154 148.717 14.5158C148.581 14.8162 148.392 15.0572 148.153 15.2355C147.915 15.417 147.65 15.5046 147.357 15.5046C147.063 15.5046 146.809 15.417 146.573 15.2387V15.2449ZM146.35 14.2812C146.45 14.5065 146.586 14.6848 146.762 14.8194C146.937 14.9539 147.134 15.0196 147.357 15.0196C147.58 15.0196 147.771 14.957 147.946 14.8287C148.122 14.7005 148.261 14.5252 148.36 14.3031C148.46 14.0809 148.512 13.8306 148.512 13.5489C148.512 13.2673 148.463 13.0233 148.36 12.8011C148.261 12.5789 148.122 12.4037 147.946 12.2785C147.771 12.1534 147.574 12.0908 147.357 12.0908C147.139 12.0908 146.948 12.1534 146.77 12.2817C146.592 12.41 146.455 12.5852 146.353 12.8073C146.253 13.0295 146.201 13.2767 146.201 13.5489C146.201 13.8212 146.251 14.0559 146.35 14.2812ZM146.749 12.5727H147.401C147.59 12.5727 147.747 12.6196 147.873 12.7135C147.999 12.8073 148.062 12.9575 148.062 13.1672C148.062 13.2767 148.041 13.3737 148.001 13.4582C147.96 13.5427 147.902 13.6115 147.823 13.6616L148.208 14.4752H147.784L147.467 13.7649C147.435 13.7742 147.409 13.7774 147.393 13.7774H147.105V14.4752L146.744 14.4626V12.5727H146.749ZM147.412 13.3612C147.496 13.3612 147.559 13.3549 147.598 13.3424C147.637 13.3299 147.663 13.3111 147.676 13.2861C147.69 13.2611 147.695 13.2204 147.695 13.1609C147.695 13.1109 147.687 13.0733 147.676 13.0483C147.663 13.0233 147.637 13.0045 147.593 12.9951C147.551 12.9857 147.485 12.9794 147.399 12.9794H147.11V13.3581H147.412V13.3612Z" fill="white"/>
  </g>
</svg>